M48
; DRILL file {KiCad 8.0.7} date 2025-01-08T21:36:27+0100
; FORMAT={-:-/ absolute / inch / decimal}
; #@! TF.CreationDate,2025-01-08T21:36:27+01:00
; #@! TF.GenerationSoftware,Kicad,Pcbnew,8.0.7
; #@! TF.FileFunction,Plated,1,2,PTH
FMAT,2
INCH
; #@! TA.AperFunction,Plated,PTH,ViaDrill
T1C0.0157
; #@! TA.AperFunction,Plated,PTH,ComponentDrill
T2C0.0295
; #@! TA.AperFunction,Plated,PTH,ComponentDrill
T3C0.0315
; #@! TA.AperFunction,Plated,PTH,ComponentDrill
T4C0.0394
; #@! TA.AperFunction,Plated,PTH,ComponentDrill
T5C0.0433
; #@! TA.AperFunction,Plated,PTH,ComponentDrill
T6C0.0591
; #@! TA.AperFunction,Plated,PTH,ComponentDrill
T7C0.0787
; #@! TA.AperFunction,Plated,PTH,ComponentDrill
T8C0.1260
%
G90
G05
T1
X6.9997Y-3.4893
T2
X6.5061Y-3.8224
X6.5061Y-4.1224
T3
X6.6761Y-3.7774
X6.7745Y-3.7774
X7.5524Y-3.7532
X7.5524Y-3.9501
X7.6311Y-3.7532
X7.6311Y-3.9501
X7.7098Y-3.7532
X7.7098Y-3.9501
T4
X6.9209Y-3.0669
X6.9754Y-3.1787
X7.0299Y-3.0669
X7.0844Y-3.1787
X7.139Y-3.0669
X7.1935Y-3.1787
X7.248Y-3.0669
X7.3026Y-3.1787
X7.3571Y-3.0669
T5
X7.0571Y-3.5234
X7.1571Y-3.5234
X7.2571Y-3.5234
T6
X6.7699Y-4.2488
X6.9687Y-4.2488
X7.1675Y-4.2488
X7.3663Y-4.2488
X7.5652Y-4.2488
T7
X4.8053Y-3.4319
X4.8053Y-3.6484
X4.9707Y-3.4319
X4.9707Y-3.6484
X5.136Y-3.4319
X5.136Y-3.6484
X5.3014Y-3.4319
X5.3014Y-3.6484
X5.4667Y-3.4319
X5.4667Y-3.6484
X5.6321Y-3.4319
X5.6321Y-3.6484
X5.7974Y-3.4319
X5.7974Y-3.6484
X5.9628Y-3.4319
X5.9628Y-3.6484
X6.1281Y-3.4319
X6.1281Y-3.6484
X6.2935Y-3.4319
X6.2935Y-3.6484
T8
X6.6469Y-3.1228
X7.6311Y-3.1228
T4
G00X4.9165Y-4.0454
M15
G01X4.9165Y-4.1241
M16
G05
G00X4.9953Y-3.8997
M15
G01X5.074Y-3.8997
M16
G05
G00X5.1528Y-4.0454
M15
G01X5.1528Y-4.1241
M16
G05
M30
