%TF.GenerationSoftware,KiCad,Pcbnew,8.0.7*%
%TF.CreationDate,2025-01-08T21:36:27+01:00*%
%TF.ProjectId,adampsu,6164616d-7073-4752-9e6b-696361645f70,rev?*%
%TF.SameCoordinates,Original*%
%TF.FileFunction,Soldermask,Top*%
%TF.FilePolarity,Negative*%
%FSLAX46Y46*%
G04 Gerber Fmt 4.6, Leading zero omitted, Abs format (unit mm)*
G04 Created by KiCad (PCBNEW 8.0.7) date 2025-01-08 21:36:27*
%MOMM*%
%LPD*%
G01*
G04 APERTURE LIST*
G04 APERTURE END LIST*
G36*
X173474517Y-106372882D02*
G01*
X173491062Y-106383938D01*
X173502118Y-106400483D01*
X173506000Y-106420000D01*
X173506000Y-109420000D01*
X173502118Y-109439517D01*
X173491062Y-109456062D01*
X173474517Y-109467118D01*
X173455000Y-109471000D01*
X170455000Y-109471000D01*
X170435483Y-109467118D01*
X170418938Y-109456062D01*
X170407882Y-109439517D01*
X170404000Y-109420000D01*
X170404000Y-106420000D01*
X170407882Y-106400483D01*
X170418938Y-106383938D01*
X170435483Y-106372882D01*
X170455000Y-106369000D01*
X173455000Y-106369000D01*
X173474517Y-106372882D01*
G37*
G36*
X178524517Y-106372882D02*
G01*
X178541062Y-106383938D01*
X178552118Y-106400483D01*
X178556000Y-106420000D01*
X178556000Y-109420000D01*
X178552118Y-109439517D01*
X178541062Y-109456062D01*
X178524517Y-109467118D01*
X178505000Y-109471000D01*
X175505000Y-109471000D01*
X175485483Y-109467118D01*
X175468938Y-109456062D01*
X175457882Y-109439517D01*
X175454000Y-109420000D01*
X175454000Y-106420000D01*
X175457882Y-106400483D01*
X175468938Y-106383938D01*
X175485483Y-106372882D01*
X175505000Y-106369000D01*
X178505000Y-106369000D01*
X178524517Y-106372882D01*
G37*
G36*
X183574517Y-106372882D02*
G01*
X183591062Y-106383938D01*
X183602118Y-106400483D01*
X183606000Y-106420000D01*
X183606000Y-109420000D01*
X183602118Y-109439517D01*
X183591062Y-109456062D01*
X183574517Y-109467118D01*
X183555000Y-109471000D01*
X180555000Y-109471000D01*
X180535483Y-109467118D01*
X180518938Y-109456062D01*
X180507882Y-109439517D01*
X180504000Y-109420000D01*
X180504000Y-106420000D01*
X180507882Y-106400483D01*
X180518938Y-106383938D01*
X180535483Y-106372882D01*
X180555000Y-106369000D01*
X183555000Y-106369000D01*
X183574517Y-106372882D01*
G37*
G36*
X188624517Y-106372882D02*
G01*
X188641062Y-106383938D01*
X188652118Y-106400483D01*
X188656000Y-106420000D01*
X188656000Y-109420000D01*
X188652118Y-109439517D01*
X188641062Y-109456062D01*
X188624517Y-109467118D01*
X188605000Y-109471000D01*
X185605000Y-109471000D01*
X185585483Y-109467118D01*
X185568938Y-109456062D01*
X185557882Y-109439517D01*
X185554000Y-109420000D01*
X185554000Y-106420000D01*
X185557882Y-106400483D01*
X185568938Y-106383938D01*
X185585483Y-106372882D01*
X185605000Y-106369000D01*
X188605000Y-106369000D01*
X188624517Y-106372882D01*
G37*
G36*
X193674517Y-106372882D02*
G01*
X193691062Y-106383938D01*
X193702118Y-106400483D01*
X193706000Y-106420000D01*
X193706000Y-109420000D01*
X193702118Y-109439517D01*
X193691062Y-109456062D01*
X193674517Y-109467118D01*
X193655000Y-109471000D01*
X190655000Y-109471000D01*
X190635483Y-109467118D01*
X190618938Y-109456062D01*
X190607882Y-109439517D01*
X190604000Y-109420000D01*
X190604000Y-106420000D01*
X190607882Y-106400483D01*
X190618938Y-106383938D01*
X190635483Y-106372882D01*
X190655000Y-106369000D01*
X193655000Y-106369000D01*
X193674517Y-106372882D01*
G37*
G36*
X125641388Y-101952783D02*
G01*
X125753601Y-101961614D01*
X125778155Y-101968193D01*
X125808239Y-101971583D01*
X125865229Y-101991524D01*
X125916804Y-102005344D01*
X125943289Y-102018838D01*
X125977541Y-102030824D01*
X126023552Y-102059735D01*
X126065884Y-102081304D01*
X126093603Y-102103751D01*
X126129415Y-102126253D01*
X126163577Y-102160415D01*
X126195905Y-102186594D01*
X126222083Y-102218921D01*
X126256247Y-102253085D01*
X126278749Y-102288897D01*
X126301195Y-102316615D01*
X126322762Y-102358943D01*
X126351676Y-102404959D01*
X126363662Y-102439214D01*
X126377155Y-102465695D01*
X126390972Y-102517262D01*
X126410917Y-102574261D01*
X126414307Y-102604349D01*
X126420885Y-102628898D01*
X126429713Y-102741086D01*
X126431000Y-102752500D01*
X126431000Y-104752500D01*
X126429713Y-104763917D01*
X126420885Y-104876101D01*
X126414307Y-104900649D01*
X126410917Y-104930739D01*
X126390971Y-104987741D01*
X126377155Y-105039304D01*
X126363663Y-105065782D01*
X126351676Y-105100041D01*
X126322759Y-105146061D01*
X126301195Y-105188384D01*
X126278752Y-105216098D01*
X126256247Y-105251915D01*
X126222079Y-105286082D01*
X126195905Y-105318405D01*
X126163582Y-105344579D01*
X126129415Y-105378747D01*
X126093598Y-105401252D01*
X126065884Y-105423695D01*
X126023561Y-105445259D01*
X125977541Y-105474176D01*
X125943282Y-105486163D01*
X125916804Y-105499655D01*
X125865241Y-105513471D01*
X125808239Y-105533417D01*
X125778149Y-105536807D01*
X125753601Y-105543385D01*
X125641415Y-105552213D01*
X125630000Y-105553500D01*
X124130000Y-105553500D01*
X124118584Y-105552213D01*
X124006398Y-105543385D01*
X123981849Y-105536807D01*
X123951761Y-105533417D01*
X123894762Y-105513472D01*
X123843195Y-105499655D01*
X123816714Y-105486162D01*
X123782459Y-105474176D01*
X123736443Y-105445262D01*
X123694115Y-105423695D01*
X123666397Y-105401249D01*
X123630585Y-105378747D01*
X123596421Y-105344583D01*
X123564094Y-105318405D01*
X123537915Y-105286077D01*
X123503753Y-105251915D01*
X123481251Y-105216103D01*
X123458804Y-105188384D01*
X123437235Y-105146052D01*
X123408324Y-105100041D01*
X123396338Y-105065789D01*
X123382844Y-105039304D01*
X123369024Y-104987729D01*
X123349083Y-104930739D01*
X123345693Y-104900655D01*
X123339114Y-104876101D01*
X123330282Y-104763886D01*
X123329000Y-104752500D01*
X123329000Y-102752500D01*
X123330282Y-102741113D01*
X123339114Y-102628898D01*
X123345693Y-102604342D01*
X123349083Y-102574261D01*
X123369023Y-102517274D01*
X123382844Y-102465695D01*
X123396339Y-102439207D01*
X123408324Y-102404959D01*
X123437232Y-102358951D01*
X123458804Y-102316615D01*
X123481254Y-102288891D01*
X123503753Y-102253085D01*
X123537910Y-102218927D01*
X123564094Y-102186594D01*
X123596427Y-102160410D01*
X123630585Y-102126253D01*
X123666391Y-102103754D01*
X123694115Y-102081304D01*
X123736451Y-102059732D01*
X123782459Y-102030824D01*
X123816707Y-102018839D01*
X123843195Y-102005344D01*
X123894774Y-101991523D01*
X123951761Y-101971583D01*
X123981842Y-101968193D01*
X124006398Y-101961614D01*
X124118615Y-101952782D01*
X124130000Y-101951500D01*
X125630000Y-101951500D01*
X125641388Y-101952783D01*
G37*
G36*
X132649517Y-101955382D02*
G01*
X132666062Y-101966438D01*
X132677118Y-101982983D01*
X132681000Y-102002500D01*
X132681000Y-105502500D01*
X132677118Y-105522017D01*
X132666062Y-105538562D01*
X132649517Y-105549618D01*
X132630000Y-105553500D01*
X129130000Y-105553500D01*
X129110483Y-105549618D01*
X129093938Y-105538562D01*
X129082882Y-105522017D01*
X129079000Y-105502500D01*
X129079000Y-102002500D01*
X129082882Y-101982983D01*
X129093938Y-101966438D01*
X129110483Y-101955382D01*
X129130000Y-101951500D01*
X132630000Y-101951500D01*
X132649517Y-101955382D01*
G37*
G36*
X166024517Y-103912882D02*
G01*
X166041062Y-103923938D01*
X166052118Y-103940483D01*
X166056000Y-103960000D01*
X166056000Y-105460000D01*
X166052118Y-105479517D01*
X166041062Y-105496062D01*
X166024517Y-105507118D01*
X166005000Y-105511000D01*
X164505000Y-105511000D01*
X164485483Y-105507118D01*
X164468938Y-105496062D01*
X164457882Y-105479517D01*
X164454000Y-105460000D01*
X164454000Y-103960000D01*
X164457882Y-103940483D01*
X164468938Y-103923938D01*
X164485483Y-103912882D01*
X164505000Y-103909000D01*
X166005000Y-103909000D01*
X166024517Y-103912882D01*
G37*
G36*
X191872833Y-99581326D02*
G01*
X191908953Y-99581326D01*
X191949697Y-99589986D01*
X191998226Y-99595454D01*
X192033510Y-99607800D01*
X192063405Y-99614155D01*
X192106492Y-99633338D01*
X192158016Y-99651368D01*
X192184834Y-99668219D01*
X192207654Y-99678379D01*
X192250199Y-99709290D01*
X192301358Y-99741435D01*
X192319731Y-99759808D01*
X192335401Y-99771193D01*
X192374136Y-99814213D01*
X192421065Y-99861142D01*
X192431860Y-99878322D01*
X192441059Y-99888539D01*
X192472537Y-99943060D01*
X192511132Y-100004484D01*
X192515949Y-100018252D01*
X192520012Y-100025288D01*
X192540807Y-100089288D01*
X192567046Y-100164274D01*
X192568041Y-100173107D01*
X192568806Y-100175461D01*
X192575743Y-100241465D01*
X192586000Y-100332500D01*
X192575742Y-100423542D01*
X192568806Y-100489538D01*
X192568041Y-100491891D01*
X192567046Y-100500726D01*
X192540802Y-100575724D01*
X192520012Y-100639711D01*
X192515950Y-100646745D01*
X192511132Y-100660516D01*
X192472530Y-100721950D01*
X192441059Y-100776460D01*
X192431862Y-100786674D01*
X192421065Y-100803858D01*
X192374127Y-100850795D01*
X192335401Y-100893806D01*
X192319734Y-100905188D01*
X192301358Y-100923565D01*
X192250189Y-100955716D01*
X192207654Y-100986620D01*
X192184840Y-100996777D01*
X192158016Y-101013632D01*
X192106481Y-101031665D01*
X192063405Y-101050844D01*
X192033516Y-101057196D01*
X191998226Y-101069546D01*
X191949694Y-101075014D01*
X191908953Y-101083674D01*
X191872833Y-101083674D01*
X191830000Y-101088500D01*
X191787167Y-101083674D01*
X191751047Y-101083674D01*
X191710304Y-101075013D01*
X191661774Y-101069546D01*
X191626484Y-101057197D01*
X191596594Y-101050844D01*
X191553513Y-101031663D01*
X191501984Y-101013632D01*
X191475162Y-100996778D01*
X191452345Y-100986620D01*
X191409803Y-100955711D01*
X191358642Y-100923565D01*
X191340267Y-100905190D01*
X191324598Y-100893806D01*
X191285862Y-100850785D01*
X191238935Y-100803858D01*
X191228140Y-100786677D01*
X191218940Y-100776460D01*
X191187457Y-100721931D01*
X191148868Y-100660516D01*
X191144050Y-100646749D01*
X191139987Y-100639711D01*
X191119183Y-100575684D01*
X191092954Y-100500726D01*
X191091959Y-100491895D01*
X191091193Y-100489538D01*
X191084242Y-100423410D01*
X191074000Y-100332500D01*
X191084241Y-100241597D01*
X191091193Y-100175461D01*
X191091959Y-100173102D01*
X191092954Y-100164274D01*
X191119178Y-100089328D01*
X191139987Y-100025288D01*
X191144051Y-100018247D01*
X191148868Y-100004484D01*
X191187450Y-99943080D01*
X191218940Y-99888539D01*
X191228141Y-99878319D01*
X191238935Y-99861142D01*
X191285858Y-99814218D01*
X191324598Y-99771194D01*
X191340267Y-99759809D01*
X191358642Y-99741435D01*
X191409803Y-99709288D01*
X191452345Y-99678380D01*
X191475162Y-99668220D01*
X191501984Y-99651368D01*
X191553513Y-99633336D01*
X191596596Y-99614155D01*
X191626487Y-99607801D01*
X191661774Y-99595454D01*
X191710303Y-99589986D01*
X191751047Y-99581326D01*
X191787167Y-99581326D01*
X191830000Y-99576500D01*
X191872833Y-99581326D01*
G37*
G36*
X193872833Y-99581326D02*
G01*
X193908953Y-99581326D01*
X193949697Y-99589986D01*
X193998226Y-99595454D01*
X194033510Y-99607800D01*
X194063405Y-99614155D01*
X194106492Y-99633338D01*
X194158016Y-99651368D01*
X194184834Y-99668219D01*
X194207654Y-99678379D01*
X194250199Y-99709290D01*
X194301358Y-99741435D01*
X194319731Y-99759808D01*
X194335401Y-99771193D01*
X194374136Y-99814213D01*
X194421065Y-99861142D01*
X194431860Y-99878322D01*
X194441059Y-99888539D01*
X194472537Y-99943060D01*
X194511132Y-100004484D01*
X194515949Y-100018252D01*
X194520012Y-100025288D01*
X194540807Y-100089288D01*
X194567046Y-100164274D01*
X194568041Y-100173107D01*
X194568806Y-100175461D01*
X194575743Y-100241465D01*
X194586000Y-100332500D01*
X194575742Y-100423542D01*
X194568806Y-100489538D01*
X194568041Y-100491891D01*
X194567046Y-100500726D01*
X194540802Y-100575724D01*
X194520012Y-100639711D01*
X194515950Y-100646745D01*
X194511132Y-100660516D01*
X194472530Y-100721950D01*
X194441059Y-100776460D01*
X194431862Y-100786674D01*
X194421065Y-100803858D01*
X194374127Y-100850795D01*
X194335401Y-100893806D01*
X194319734Y-100905188D01*
X194301358Y-100923565D01*
X194250189Y-100955716D01*
X194207654Y-100986620D01*
X194184840Y-100996777D01*
X194158016Y-101013632D01*
X194106481Y-101031665D01*
X194063405Y-101050844D01*
X194033516Y-101057196D01*
X193998226Y-101069546D01*
X193949694Y-101075014D01*
X193908953Y-101083674D01*
X193872833Y-101083674D01*
X193830000Y-101088500D01*
X193787167Y-101083674D01*
X193751047Y-101083674D01*
X193710304Y-101075013D01*
X193661774Y-101069546D01*
X193626484Y-101057197D01*
X193596594Y-101050844D01*
X193553513Y-101031663D01*
X193501984Y-101013632D01*
X193475162Y-100996778D01*
X193452345Y-100986620D01*
X193409803Y-100955711D01*
X193358642Y-100923565D01*
X193340267Y-100905190D01*
X193324598Y-100893806D01*
X193285862Y-100850785D01*
X193238935Y-100803858D01*
X193228140Y-100786677D01*
X193218940Y-100776460D01*
X193187457Y-100721931D01*
X193148868Y-100660516D01*
X193144050Y-100646749D01*
X193139987Y-100639711D01*
X193119183Y-100575684D01*
X193092954Y-100500726D01*
X193091959Y-100491895D01*
X193091193Y-100489538D01*
X193084242Y-100423410D01*
X193074000Y-100332500D01*
X193084241Y-100241597D01*
X193091193Y-100175461D01*
X193091959Y-100173102D01*
X193092954Y-100164274D01*
X193119178Y-100089328D01*
X193139987Y-100025288D01*
X193144051Y-100018247D01*
X193148868Y-100004484D01*
X193187450Y-99943080D01*
X193218940Y-99888539D01*
X193228141Y-99878319D01*
X193238935Y-99861142D01*
X193285858Y-99814218D01*
X193324598Y-99771194D01*
X193340267Y-99759809D01*
X193358642Y-99741435D01*
X193409803Y-99709288D01*
X193452345Y-99678380D01*
X193475162Y-99668220D01*
X193501984Y-99651368D01*
X193553513Y-99633336D01*
X193596596Y-99614155D01*
X193626487Y-99607801D01*
X193661774Y-99595454D01*
X193710303Y-99589986D01*
X193751047Y-99581326D01*
X193787167Y-99581326D01*
X193830000Y-99576500D01*
X193872833Y-99581326D01*
G37*
G36*
X195872833Y-99581326D02*
G01*
X195908953Y-99581326D01*
X195949697Y-99589986D01*
X195998226Y-99595454D01*
X196033510Y-99607800D01*
X196063405Y-99614155D01*
X196106492Y-99633338D01*
X196158016Y-99651368D01*
X196184834Y-99668219D01*
X196207654Y-99678379D01*
X196250199Y-99709290D01*
X196301358Y-99741435D01*
X196319731Y-99759808D01*
X196335401Y-99771193D01*
X196374136Y-99814213D01*
X196421065Y-99861142D01*
X196431860Y-99878322D01*
X196441059Y-99888539D01*
X196472537Y-99943060D01*
X196511132Y-100004484D01*
X196515949Y-100018252D01*
X196520012Y-100025288D01*
X196540807Y-100089288D01*
X196567046Y-100164274D01*
X196568041Y-100173107D01*
X196568806Y-100175461D01*
X196575743Y-100241465D01*
X196586000Y-100332500D01*
X196575742Y-100423542D01*
X196568806Y-100489538D01*
X196568041Y-100491891D01*
X196567046Y-100500726D01*
X196540802Y-100575724D01*
X196520012Y-100639711D01*
X196515950Y-100646745D01*
X196511132Y-100660516D01*
X196472530Y-100721950D01*
X196441059Y-100776460D01*
X196431862Y-100786674D01*
X196421065Y-100803858D01*
X196374127Y-100850795D01*
X196335401Y-100893806D01*
X196319734Y-100905188D01*
X196301358Y-100923565D01*
X196250189Y-100955716D01*
X196207654Y-100986620D01*
X196184840Y-100996777D01*
X196158016Y-101013632D01*
X196106481Y-101031665D01*
X196063405Y-101050844D01*
X196033516Y-101057196D01*
X195998226Y-101069546D01*
X195949694Y-101075014D01*
X195908953Y-101083674D01*
X195872833Y-101083674D01*
X195830000Y-101088500D01*
X195787167Y-101083674D01*
X195751047Y-101083674D01*
X195710304Y-101075013D01*
X195661774Y-101069546D01*
X195626484Y-101057197D01*
X195596594Y-101050844D01*
X195553513Y-101031663D01*
X195501984Y-101013632D01*
X195475162Y-100996778D01*
X195452345Y-100986620D01*
X195409803Y-100955711D01*
X195358642Y-100923565D01*
X195340267Y-100905190D01*
X195324598Y-100893806D01*
X195285862Y-100850785D01*
X195238935Y-100803858D01*
X195228140Y-100786677D01*
X195218940Y-100776460D01*
X195187457Y-100721931D01*
X195148868Y-100660516D01*
X195144050Y-100646749D01*
X195139987Y-100639711D01*
X195119183Y-100575684D01*
X195092954Y-100500726D01*
X195091959Y-100491895D01*
X195091193Y-100489538D01*
X195084242Y-100423410D01*
X195074000Y-100332500D01*
X195084241Y-100241597D01*
X195091193Y-100175461D01*
X195091959Y-100173102D01*
X195092954Y-100164274D01*
X195119178Y-100089328D01*
X195139987Y-100025288D01*
X195144051Y-100018247D01*
X195148868Y-100004484D01*
X195187450Y-99943080D01*
X195218940Y-99888539D01*
X195228141Y-99878319D01*
X195238935Y-99861142D01*
X195285858Y-99814218D01*
X195324598Y-99771194D01*
X195340267Y-99759809D01*
X195358642Y-99741435D01*
X195409803Y-99709288D01*
X195452345Y-99678380D01*
X195475162Y-99668220D01*
X195501984Y-99651368D01*
X195553513Y-99633336D01*
X195596596Y-99614155D01*
X195626487Y-99607801D01*
X195661774Y-99595454D01*
X195710303Y-99589986D01*
X195751047Y-99581326D01*
X195787167Y-99581326D01*
X195830000Y-99576500D01*
X195872833Y-99581326D01*
G37*
G36*
X128899858Y-97262901D02*
G01*
X128920342Y-97268389D01*
X128935533Y-97269886D01*
X129008249Y-97291944D01*
X129086849Y-97313005D01*
X129100343Y-97319880D01*
X129109136Y-97322548D01*
X129181709Y-97361338D01*
X129259336Y-97400891D01*
X129266379Y-97406594D01*
X129269121Y-97408060D01*
X129338372Y-97464893D01*
X129409781Y-97522719D01*
X129467619Y-97594144D01*
X129524439Y-97663378D01*
X129525904Y-97666118D01*
X129531609Y-97673164D01*
X129571170Y-97750808D01*
X129609951Y-97823363D01*
X129612617Y-97832152D01*
X129619495Y-97845651D01*
X129640559Y-97924264D01*
X129662613Y-97996965D01*
X129664108Y-98012152D01*
X129669599Y-98032642D01*
X129681000Y-98177500D01*
X129681000Y-99927500D01*
X129669599Y-100072358D01*
X129664108Y-100092848D01*
X129662613Y-100108033D01*
X129640563Y-100180721D01*
X129619495Y-100259349D01*
X129612616Y-100272848D01*
X129609951Y-100281636D01*
X129571181Y-100354169D01*
X129531609Y-100431836D01*
X129525902Y-100438882D01*
X129524439Y-100441621D01*
X129467680Y-100510780D01*
X129409781Y-100582281D01*
X129338280Y-100640180D01*
X129269121Y-100696939D01*
X129266382Y-100698402D01*
X129259336Y-100704109D01*
X129181669Y-100743681D01*
X129109136Y-100782451D01*
X129100348Y-100785116D01*
X129086849Y-100791995D01*
X129008226Y-100813061D01*
X128935534Y-100835113D01*
X128920348Y-100836608D01*
X128899858Y-100842099D01*
X128755000Y-100853500D01*
X127005000Y-100853500D01*
X126860142Y-100842099D01*
X126839651Y-100836608D01*
X126824466Y-100835113D01*
X126751769Y-100813060D01*
X126673151Y-100791995D01*
X126659652Y-100785117D01*
X126650863Y-100782451D01*
X126578308Y-100743670D01*
X126500664Y-100704109D01*
X126493618Y-100698404D01*
X126490878Y-100696939D01*
X126421644Y-100640119D01*
X126350219Y-100582281D01*
X126292393Y-100510872D01*
X126235560Y-100441621D01*
X126234094Y-100438879D01*
X126228391Y-100431836D01*
X126188838Y-100354209D01*
X126150048Y-100281636D01*
X126147380Y-100272843D01*
X126140505Y-100259349D01*
X126119445Y-100180754D01*
X126097386Y-100108034D01*
X126095889Y-100092842D01*
X126090401Y-100072358D01*
X126079000Y-99927500D01*
X126079000Y-98177500D01*
X126090401Y-98032642D01*
X126095889Y-98012157D01*
X126097386Y-97996966D01*
X126119446Y-97924241D01*
X126140505Y-97845651D01*
X126147380Y-97832157D01*
X126150048Y-97823363D01*
X126188849Y-97750768D01*
X126228391Y-97673164D01*
X126234093Y-97666122D01*
X126235560Y-97663378D01*
X126292454Y-97594052D01*
X126350219Y-97522719D01*
X126421552Y-97464954D01*
X126490878Y-97408060D01*
X126493622Y-97406593D01*
X126500664Y-97400891D01*
X126578268Y-97361349D01*
X126650863Y-97322548D01*
X126659657Y-97319880D01*
X126673151Y-97313005D01*
X126751736Y-97291948D01*
X126824465Y-97269886D01*
X126839658Y-97268389D01*
X126860142Y-97262901D01*
X127005000Y-97251500D01*
X128755000Y-97251500D01*
X128899858Y-97262901D01*
G37*
G36*
X165300023Y-96294073D02*
G01*
X165338657Y-96294073D01*
X165382240Y-96303336D01*
X165433239Y-96309083D01*
X165470321Y-96322058D01*
X165502306Y-96328857D01*
X165548401Y-96349379D01*
X165602541Y-96368324D01*
X165630719Y-96386029D01*
X165655157Y-96396910D01*
X165700720Y-96430014D01*
X165754415Y-96463753D01*
X165773700Y-96483038D01*
X165790512Y-96495253D01*
X165832076Y-96541414D01*
X165881247Y-96590585D01*
X165892555Y-96608582D01*
X165902467Y-96619590D01*
X165936376Y-96678322D01*
X165976676Y-96742459D01*
X165981707Y-96756838D01*
X165986120Y-96764481D01*
X166008718Y-96834030D01*
X166035917Y-96911761D01*
X166036948Y-96920913D01*
X166037823Y-96923606D01*
X166045750Y-96999038D01*
X166056000Y-97090000D01*
X166045750Y-97180969D01*
X166037823Y-97256393D01*
X166036948Y-97259084D01*
X166035917Y-97268239D01*
X166008713Y-97345982D01*
X165986120Y-97415518D01*
X165981708Y-97423159D01*
X165976676Y-97437541D01*
X165936369Y-97501688D01*
X165902467Y-97560409D01*
X165892557Y-97571414D01*
X165881247Y-97589415D01*
X165832067Y-97638594D01*
X165790512Y-97684746D01*
X165773704Y-97696957D01*
X165754415Y-97716247D01*
X165700710Y-97749992D01*
X165655157Y-97783089D01*
X165630725Y-97793966D01*
X165602541Y-97811676D01*
X165548391Y-97830623D01*
X165502306Y-97851142D01*
X165470327Y-97857939D01*
X165433239Y-97870917D01*
X165382237Y-97876663D01*
X165338657Y-97885927D01*
X165300023Y-97885927D01*
X165255000Y-97891000D01*
X165209977Y-97885927D01*
X165171343Y-97885927D01*
X165127761Y-97876663D01*
X165076761Y-97870917D01*
X165039674Y-97857939D01*
X165007693Y-97851142D01*
X164961603Y-97830622D01*
X164907459Y-97811676D01*
X164879277Y-97793968D01*
X164854842Y-97783089D01*
X164809282Y-97749987D01*
X164755585Y-97716247D01*
X164736298Y-97696960D01*
X164719487Y-97684746D01*
X164677922Y-97638584D01*
X164628753Y-97589415D01*
X164617444Y-97571418D01*
X164607532Y-97560409D01*
X164573618Y-97501668D01*
X164533324Y-97437541D01*
X164528293Y-97423163D01*
X164523879Y-97415518D01*
X164501272Y-97345942D01*
X164474083Y-97268239D01*
X164473052Y-97259089D01*
X164472176Y-97256393D01*
X164464235Y-97180837D01*
X164454000Y-97090000D01*
X164464234Y-96999170D01*
X164472176Y-96923606D01*
X164473052Y-96920909D01*
X164474083Y-96911761D01*
X164501267Y-96834070D01*
X164523879Y-96764481D01*
X164528293Y-96756834D01*
X164533324Y-96742459D01*
X164573611Y-96678342D01*
X164607532Y-96619590D01*
X164617446Y-96608578D01*
X164628753Y-96590585D01*
X164677913Y-96541424D01*
X164719487Y-96495253D01*
X164736301Y-96483036D01*
X164755585Y-96463753D01*
X164809278Y-96430015D01*
X164854846Y-96396908D01*
X164879284Y-96386027D01*
X164907459Y-96368324D01*
X164961587Y-96349383D01*
X165007689Y-96328858D01*
X165039679Y-96322058D01*
X165076761Y-96309083D01*
X165127759Y-96303336D01*
X165171343Y-96294073D01*
X165209977Y-96294073D01*
X165255000Y-96289000D01*
X165300023Y-96294073D01*
G37*
G36*
X170392117Y-95097882D02*
G01*
X170408662Y-95108938D01*
X170419718Y-95125483D01*
X170423600Y-95145000D01*
X170423600Y-96745000D01*
X170419718Y-96764517D01*
X170408662Y-96781062D01*
X170392117Y-96792118D01*
X170372600Y-96796000D01*
X168772600Y-96796000D01*
X168753083Y-96792118D01*
X168736538Y-96781062D01*
X168725482Y-96764517D01*
X168721600Y-96745000D01*
X168721600Y-95145000D01*
X168725482Y-95125483D01*
X168736538Y-95108938D01*
X168753083Y-95097882D01*
X168772600Y-95094000D01*
X170372600Y-95094000D01*
X170392117Y-95097882D01*
G37*
G36*
X172113799Y-95098662D02*
G01*
X172161554Y-95098662D01*
X172202794Y-95107427D01*
X172238501Y-95110945D01*
X172283359Y-95124552D01*
X172335573Y-95135651D01*
X172368984Y-95150526D01*
X172398035Y-95159339D01*
X172444202Y-95184015D01*
X172498100Y-95208012D01*
X172523154Y-95226215D01*
X172545053Y-95237920D01*
X172589728Y-95274584D01*
X172642030Y-95312584D01*
X172659011Y-95331443D01*
X172673920Y-95343679D01*
X172713987Y-95392501D01*
X172761073Y-95444795D01*
X172770964Y-95461927D01*
X172779679Y-95472546D01*
X172811906Y-95532840D01*
X172850027Y-95598867D01*
X172854413Y-95612368D01*
X172858260Y-95619564D01*
X172879461Y-95689455D01*
X172905004Y-95768067D01*
X172905903Y-95776623D01*
X172906654Y-95779098D01*
X172913971Y-95853389D01*
X172923600Y-95945000D01*
X172913970Y-96036619D01*
X172906654Y-96110901D01*
X172905903Y-96113375D01*
X172905004Y-96121933D01*
X172879456Y-96200558D01*
X172858260Y-96270435D01*
X172854414Y-96277629D01*
X172850027Y-96291133D01*
X172811899Y-96357172D01*
X172779679Y-96417453D01*
X172770966Y-96428069D01*
X172761073Y-96445205D01*
X172713978Y-96497509D01*
X172673920Y-96546320D01*
X172659014Y-96558552D01*
X172642030Y-96577416D01*
X172589718Y-96615423D01*
X172545053Y-96652079D01*
X172523159Y-96663780D01*
X172498100Y-96681988D01*
X172444191Y-96705989D01*
X172398035Y-96730660D01*
X172368991Y-96739470D01*
X172335573Y-96754349D01*
X172283348Y-96765449D01*
X172238501Y-96779054D01*
X172202803Y-96782570D01*
X172161554Y-96791338D01*
X172113788Y-96791338D01*
X172072600Y-96795395D01*
X172031411Y-96791338D01*
X171983646Y-96791338D01*
X171942397Y-96782570D01*
X171906698Y-96779054D01*
X171861848Y-96765448D01*
X171809627Y-96754349D01*
X171776210Y-96739471D01*
X171747164Y-96730660D01*
X171701002Y-96705986D01*
X171647100Y-96681988D01*
X171622043Y-96663783D01*
X171600146Y-96652079D01*
X171555473Y-96615416D01*
X171503170Y-96577416D01*
X171486188Y-96558555D01*
X171471279Y-96546320D01*
X171431210Y-96497496D01*
X171384127Y-96445205D01*
X171374236Y-96428073D01*
X171365520Y-96417453D01*
X171333287Y-96357148D01*
X171295173Y-96291133D01*
X171290786Y-96277634D01*
X171286939Y-96270435D01*
X171265728Y-96200512D01*
X171240196Y-96121933D01*
X171239297Y-96113380D01*
X171238545Y-96110901D01*
X171231213Y-96036467D01*
X171221600Y-95945000D01*
X171231212Y-95853540D01*
X171238545Y-95779098D01*
X171239297Y-95776618D01*
X171240196Y-95768067D01*
X171265723Y-95689502D01*
X171286939Y-95619564D01*
X171290787Y-95612363D01*
X171295173Y-95598867D01*
X171333280Y-95532863D01*
X171365520Y-95472546D01*
X171374238Y-95461923D01*
X171384127Y-95444795D01*
X171431201Y-95392513D01*
X171471279Y-95343679D01*
X171486191Y-95331440D01*
X171503170Y-95312584D01*
X171555462Y-95274591D01*
X171600146Y-95237920D01*
X171622048Y-95226213D01*
X171647100Y-95208012D01*
X171700991Y-95184018D01*
X171747164Y-95159339D01*
X171776217Y-95150525D01*
X171809627Y-95135651D01*
X171861837Y-95124553D01*
X171906698Y-95110945D01*
X171942406Y-95107427D01*
X171983646Y-95098662D01*
X172031401Y-95098662D01*
X172072600Y-95094604D01*
X172113799Y-95098662D01*
G37*
G36*
X192523034Y-94584264D02*
G01*
X192556125Y-94606375D01*
X192578236Y-94639466D01*
X192586000Y-94678500D01*
X192586000Y-95986500D01*
X192578236Y-96025534D01*
X192556125Y-96058625D01*
X192523034Y-96080736D01*
X192484000Y-96088500D01*
X191176000Y-96088500D01*
X191136966Y-96080736D01*
X191103875Y-96058625D01*
X191081764Y-96025534D01*
X191074000Y-95986500D01*
X191074000Y-94678500D01*
X191081764Y-94639466D01*
X191103875Y-94606375D01*
X191136966Y-94584264D01*
X191176000Y-94576500D01*
X192484000Y-94576500D01*
X192523034Y-94584264D01*
G37*
G36*
X193872833Y-94581326D02*
G01*
X193908953Y-94581326D01*
X193949697Y-94589986D01*
X193998226Y-94595454D01*
X194033510Y-94607800D01*
X194063405Y-94614155D01*
X194106492Y-94633338D01*
X194158016Y-94651368D01*
X194184834Y-94668219D01*
X194207654Y-94678379D01*
X194250199Y-94709290D01*
X194301358Y-94741435D01*
X194319731Y-94759808D01*
X194335401Y-94771193D01*
X194374136Y-94814213D01*
X194421065Y-94861142D01*
X194431860Y-94878322D01*
X194441059Y-94888539D01*
X194472537Y-94943060D01*
X194511132Y-95004484D01*
X194515949Y-95018252D01*
X194520012Y-95025288D01*
X194540807Y-95089288D01*
X194567046Y-95164274D01*
X194568041Y-95173107D01*
X194568806Y-95175461D01*
X194575743Y-95241465D01*
X194586000Y-95332500D01*
X194575742Y-95423542D01*
X194568806Y-95489538D01*
X194568041Y-95491891D01*
X194567046Y-95500726D01*
X194540802Y-95575724D01*
X194520012Y-95639711D01*
X194515950Y-95646745D01*
X194511132Y-95660516D01*
X194472530Y-95721950D01*
X194441059Y-95776460D01*
X194431862Y-95786674D01*
X194421065Y-95803858D01*
X194374127Y-95850795D01*
X194335401Y-95893806D01*
X194319734Y-95905188D01*
X194301358Y-95923565D01*
X194250189Y-95955716D01*
X194207654Y-95986620D01*
X194184840Y-95996777D01*
X194158016Y-96013632D01*
X194106481Y-96031665D01*
X194063405Y-96050844D01*
X194033516Y-96057196D01*
X193998226Y-96069546D01*
X193949694Y-96075014D01*
X193908953Y-96083674D01*
X193872833Y-96083674D01*
X193830000Y-96088500D01*
X193787167Y-96083674D01*
X193751047Y-96083674D01*
X193710304Y-96075013D01*
X193661774Y-96069546D01*
X193626484Y-96057197D01*
X193596594Y-96050844D01*
X193553513Y-96031663D01*
X193501984Y-96013632D01*
X193475162Y-95996778D01*
X193452345Y-95986620D01*
X193409803Y-95955711D01*
X193358642Y-95923565D01*
X193340267Y-95905190D01*
X193324598Y-95893806D01*
X193285862Y-95850785D01*
X193238935Y-95803858D01*
X193228140Y-95786677D01*
X193218940Y-95776460D01*
X193187457Y-95721931D01*
X193148868Y-95660516D01*
X193144050Y-95646749D01*
X193139987Y-95639711D01*
X193119183Y-95575684D01*
X193092954Y-95500726D01*
X193091959Y-95491895D01*
X193091193Y-95489538D01*
X193084242Y-95423410D01*
X193074000Y-95332500D01*
X193084241Y-95241597D01*
X193091193Y-95175461D01*
X193091959Y-95173102D01*
X193092954Y-95164274D01*
X193119178Y-95089328D01*
X193139987Y-95025288D01*
X193144051Y-95018247D01*
X193148868Y-95004484D01*
X193187450Y-94943080D01*
X193218940Y-94888539D01*
X193228141Y-94878319D01*
X193238935Y-94861142D01*
X193285858Y-94814218D01*
X193324598Y-94771194D01*
X193340267Y-94759809D01*
X193358642Y-94741435D01*
X193409803Y-94709288D01*
X193452345Y-94678380D01*
X193475162Y-94668220D01*
X193501984Y-94651368D01*
X193553513Y-94633336D01*
X193596596Y-94614155D01*
X193626487Y-94607801D01*
X193661774Y-94595454D01*
X193710303Y-94589986D01*
X193751047Y-94581326D01*
X193787167Y-94581326D01*
X193830000Y-94576500D01*
X193872833Y-94581326D01*
G37*
G36*
X195872833Y-94581326D02*
G01*
X195908953Y-94581326D01*
X195949697Y-94589986D01*
X195998226Y-94595454D01*
X196033510Y-94607800D01*
X196063405Y-94614155D01*
X196106492Y-94633338D01*
X196158016Y-94651368D01*
X196184834Y-94668219D01*
X196207654Y-94678379D01*
X196250199Y-94709290D01*
X196301358Y-94741435D01*
X196319731Y-94759808D01*
X196335401Y-94771193D01*
X196374136Y-94814213D01*
X196421065Y-94861142D01*
X196431860Y-94878322D01*
X196441059Y-94888539D01*
X196472537Y-94943060D01*
X196511132Y-95004484D01*
X196515949Y-95018252D01*
X196520012Y-95025288D01*
X196540807Y-95089288D01*
X196567046Y-95164274D01*
X196568041Y-95173107D01*
X196568806Y-95175461D01*
X196575743Y-95241465D01*
X196586000Y-95332500D01*
X196575742Y-95423542D01*
X196568806Y-95489538D01*
X196568041Y-95491891D01*
X196567046Y-95500726D01*
X196540802Y-95575724D01*
X196520012Y-95639711D01*
X196515950Y-95646745D01*
X196511132Y-95660516D01*
X196472530Y-95721950D01*
X196441059Y-95776460D01*
X196431862Y-95786674D01*
X196421065Y-95803858D01*
X196374127Y-95850795D01*
X196335401Y-95893806D01*
X196319734Y-95905188D01*
X196301358Y-95923565D01*
X196250189Y-95955716D01*
X196207654Y-95986620D01*
X196184840Y-95996777D01*
X196158016Y-96013632D01*
X196106481Y-96031665D01*
X196063405Y-96050844D01*
X196033516Y-96057196D01*
X195998226Y-96069546D01*
X195949694Y-96075014D01*
X195908953Y-96083674D01*
X195872833Y-96083674D01*
X195830000Y-96088500D01*
X195787167Y-96083674D01*
X195751047Y-96083674D01*
X195710304Y-96075013D01*
X195661774Y-96069546D01*
X195626484Y-96057197D01*
X195596594Y-96050844D01*
X195553513Y-96031663D01*
X195501984Y-96013632D01*
X195475162Y-95996778D01*
X195452345Y-95986620D01*
X195409803Y-95955711D01*
X195358642Y-95923565D01*
X195340267Y-95905190D01*
X195324598Y-95893806D01*
X195285862Y-95850785D01*
X195238935Y-95803858D01*
X195228140Y-95786677D01*
X195218940Y-95776460D01*
X195187457Y-95721931D01*
X195148868Y-95660516D01*
X195144050Y-95646749D01*
X195139987Y-95639711D01*
X195119183Y-95575684D01*
X195092954Y-95500726D01*
X195091959Y-95491895D01*
X195091193Y-95489538D01*
X195084242Y-95423410D01*
X195074000Y-95332500D01*
X195084241Y-95241597D01*
X195091193Y-95175461D01*
X195091959Y-95173102D01*
X195092954Y-95164274D01*
X195119178Y-95089328D01*
X195139987Y-95025288D01*
X195144051Y-95018247D01*
X195148868Y-95004484D01*
X195187450Y-94943080D01*
X195218940Y-94888539D01*
X195228141Y-94878319D01*
X195238935Y-94861142D01*
X195285858Y-94814218D01*
X195324598Y-94771194D01*
X195340267Y-94759809D01*
X195358642Y-94741435D01*
X195409803Y-94709288D01*
X195452345Y-94678380D01*
X195475162Y-94668220D01*
X195501984Y-94651368D01*
X195553513Y-94633336D01*
X195596596Y-94614155D01*
X195626487Y-94607801D01*
X195661774Y-94595454D01*
X195710303Y-94589986D01*
X195751047Y-94581326D01*
X195787167Y-94581326D01*
X195830000Y-94576500D01*
X195872833Y-94581326D01*
G37*
G36*
X122382057Y-90807710D02*
G01*
X122591139Y-90875645D01*
X122787020Y-90975451D01*
X122964877Y-91104671D01*
X123120329Y-91260123D01*
X123249549Y-91437980D01*
X123349355Y-91633861D01*
X123417290Y-91842943D01*
X123451681Y-92060079D01*
X123456000Y-92170000D01*
X123456000Y-93170000D01*
X123451681Y-93279921D01*
X123417290Y-93497057D01*
X123349355Y-93706139D01*
X123249549Y-93902020D01*
X123120329Y-94079877D01*
X122964877Y-94235329D01*
X122787020Y-94364549D01*
X122591139Y-94464355D01*
X122382057Y-94532290D01*
X122164921Y-94566681D01*
X121945079Y-94566681D01*
X121727943Y-94532290D01*
X121518861Y-94464355D01*
X121322980Y-94364549D01*
X121145123Y-94235329D01*
X120989671Y-94079877D01*
X120860451Y-93902020D01*
X120760645Y-93706139D01*
X120692710Y-93497057D01*
X120658319Y-93279921D01*
X120654000Y-93170000D01*
X120654000Y-92170000D01*
X120658319Y-92060079D01*
X120692710Y-91842943D01*
X120760645Y-91633861D01*
X120860451Y-91437980D01*
X120989671Y-91260123D01*
X121145123Y-91104671D01*
X121322980Y-90975451D01*
X121518861Y-90875645D01*
X121727943Y-90807710D01*
X121945079Y-90773319D01*
X122164921Y-90773319D01*
X122382057Y-90807710D01*
G37*
G36*
X126582057Y-90807710D02*
G01*
X126791139Y-90875645D01*
X126987020Y-90975451D01*
X127164877Y-91104671D01*
X127320329Y-91260123D01*
X127449549Y-91437980D01*
X127549355Y-91633861D01*
X127617290Y-91842943D01*
X127651681Y-92060079D01*
X127656000Y-92170000D01*
X127656000Y-93170000D01*
X127651681Y-93279921D01*
X127617290Y-93497057D01*
X127549355Y-93706139D01*
X127449549Y-93902020D01*
X127320329Y-94079877D01*
X127164877Y-94235329D01*
X126987020Y-94364549D01*
X126791139Y-94464355D01*
X126582057Y-94532290D01*
X126364921Y-94566681D01*
X126145079Y-94566681D01*
X125927943Y-94532290D01*
X125718861Y-94464355D01*
X125522980Y-94364549D01*
X125345123Y-94235329D01*
X125189671Y-94079877D01*
X125060451Y-93902020D01*
X124960645Y-93706139D01*
X124892710Y-93497057D01*
X124858319Y-93279921D01*
X124854000Y-93170000D01*
X124854000Y-92170000D01*
X124858319Y-92060079D01*
X124892710Y-91842943D01*
X124960645Y-91633861D01*
X125060451Y-91437980D01*
X125189671Y-91260123D01*
X125345123Y-91104671D01*
X125522980Y-90975451D01*
X125718861Y-90875645D01*
X125927943Y-90807710D01*
X126145079Y-90773319D01*
X126364921Y-90773319D01*
X126582057Y-90807710D01*
G37*
G36*
X130782057Y-90807710D02*
G01*
X130991139Y-90875645D01*
X131187020Y-90975451D01*
X131364877Y-91104671D01*
X131520329Y-91260123D01*
X131649549Y-91437980D01*
X131749355Y-91633861D01*
X131817290Y-91842943D01*
X131851681Y-92060079D01*
X131856000Y-92170000D01*
X131856000Y-93170000D01*
X131851681Y-93279921D01*
X131817290Y-93497057D01*
X131749355Y-93706139D01*
X131649549Y-93902020D01*
X131520329Y-94079877D01*
X131364877Y-94235329D01*
X131187020Y-94364549D01*
X130991139Y-94464355D01*
X130782057Y-94532290D01*
X130564921Y-94566681D01*
X130345079Y-94566681D01*
X130127943Y-94532290D01*
X129918861Y-94464355D01*
X129722980Y-94364549D01*
X129545123Y-94235329D01*
X129389671Y-94079877D01*
X129260451Y-93902020D01*
X129160645Y-93706139D01*
X129092710Y-93497057D01*
X129058319Y-93279921D01*
X129054000Y-93170000D01*
X129054000Y-92170000D01*
X129058319Y-92060079D01*
X129092710Y-91842943D01*
X129160645Y-91633861D01*
X129260451Y-91437980D01*
X129389671Y-91260123D01*
X129545123Y-91104671D01*
X129722980Y-90975451D01*
X129918861Y-90875645D01*
X130127943Y-90807710D01*
X130345079Y-90773319D01*
X130564921Y-90773319D01*
X130782057Y-90807710D01*
G37*
G36*
X134982057Y-90807710D02*
G01*
X135191139Y-90875645D01*
X135387020Y-90975451D01*
X135564877Y-91104671D01*
X135720329Y-91260123D01*
X135849549Y-91437980D01*
X135949355Y-91633861D01*
X136017290Y-91842943D01*
X136051681Y-92060079D01*
X136056000Y-92170000D01*
X136056000Y-93170000D01*
X136051681Y-93279921D01*
X136017290Y-93497057D01*
X135949355Y-93706139D01*
X135849549Y-93902020D01*
X135720329Y-94079877D01*
X135564877Y-94235329D01*
X135387020Y-94364549D01*
X135191139Y-94464355D01*
X134982057Y-94532290D01*
X134764921Y-94566681D01*
X134545079Y-94566681D01*
X134327943Y-94532290D01*
X134118861Y-94464355D01*
X133922980Y-94364549D01*
X133745123Y-94235329D01*
X133589671Y-94079877D01*
X133460451Y-93902020D01*
X133360645Y-93706139D01*
X133292710Y-93497057D01*
X133258319Y-93279921D01*
X133254000Y-93170000D01*
X133254000Y-92170000D01*
X133258319Y-92060079D01*
X133292710Y-91842943D01*
X133360645Y-91633861D01*
X133460451Y-91437980D01*
X133589671Y-91260123D01*
X133745123Y-91104671D01*
X133922980Y-90975451D01*
X134118861Y-90875645D01*
X134327943Y-90807710D01*
X134545079Y-90773319D01*
X134764921Y-90773319D01*
X134982057Y-90807710D01*
G37*
G36*
X139182057Y-90807710D02*
G01*
X139391139Y-90875645D01*
X139587020Y-90975451D01*
X139764877Y-91104671D01*
X139920329Y-91260123D01*
X140049549Y-91437980D01*
X140149355Y-91633861D01*
X140217290Y-91842943D01*
X140251681Y-92060079D01*
X140256000Y-92170000D01*
X140256000Y-93170000D01*
X140251681Y-93279921D01*
X140217290Y-93497057D01*
X140149355Y-93706139D01*
X140049549Y-93902020D01*
X139920329Y-94079877D01*
X139764877Y-94235329D01*
X139587020Y-94364549D01*
X139391139Y-94464355D01*
X139182057Y-94532290D01*
X138964921Y-94566681D01*
X138745079Y-94566681D01*
X138527943Y-94532290D01*
X138318861Y-94464355D01*
X138122980Y-94364549D01*
X137945123Y-94235329D01*
X137789671Y-94079877D01*
X137660451Y-93902020D01*
X137560645Y-93706139D01*
X137492710Y-93497057D01*
X137458319Y-93279921D01*
X137454000Y-93170000D01*
X137454000Y-92170000D01*
X137458319Y-92060079D01*
X137492710Y-91842943D01*
X137560645Y-91633861D01*
X137660451Y-91437980D01*
X137789671Y-91260123D01*
X137945123Y-91104671D01*
X138122980Y-90975451D01*
X138318861Y-90875645D01*
X138527943Y-90807710D01*
X138745079Y-90773319D01*
X138964921Y-90773319D01*
X139182057Y-90807710D01*
G37*
G36*
X143382057Y-90807710D02*
G01*
X143591139Y-90875645D01*
X143787020Y-90975451D01*
X143964877Y-91104671D01*
X144120329Y-91260123D01*
X144249549Y-91437980D01*
X144349355Y-91633861D01*
X144417290Y-91842943D01*
X144451681Y-92060079D01*
X144456000Y-92170000D01*
X144456000Y-93170000D01*
X144451681Y-93279921D01*
X144417290Y-93497057D01*
X144349355Y-93706139D01*
X144249549Y-93902020D01*
X144120329Y-94079877D01*
X143964877Y-94235329D01*
X143787020Y-94364549D01*
X143591139Y-94464355D01*
X143382057Y-94532290D01*
X143164921Y-94566681D01*
X142945079Y-94566681D01*
X142727943Y-94532290D01*
X142518861Y-94464355D01*
X142322980Y-94364549D01*
X142145123Y-94235329D01*
X141989671Y-94079877D01*
X141860451Y-93902020D01*
X141760645Y-93706139D01*
X141692710Y-93497057D01*
X141658319Y-93279921D01*
X141654000Y-93170000D01*
X141654000Y-92170000D01*
X141658319Y-92060079D01*
X141692710Y-91842943D01*
X141760645Y-91633861D01*
X141860451Y-91437980D01*
X141989671Y-91260123D01*
X142145123Y-91104671D01*
X142322980Y-90975451D01*
X142518861Y-90875645D01*
X142727943Y-90807710D01*
X142945079Y-90773319D01*
X143164921Y-90773319D01*
X143382057Y-90807710D01*
G37*
G36*
X147582057Y-90807710D02*
G01*
X147791139Y-90875645D01*
X147987020Y-90975451D01*
X148164877Y-91104671D01*
X148320329Y-91260123D01*
X148449549Y-91437980D01*
X148549355Y-91633861D01*
X148617290Y-91842943D01*
X148651681Y-92060079D01*
X148656000Y-92170000D01*
X148656000Y-93170000D01*
X148651681Y-93279921D01*
X148617290Y-93497057D01*
X148549355Y-93706139D01*
X148449549Y-93902020D01*
X148320329Y-94079877D01*
X148164877Y-94235329D01*
X147987020Y-94364549D01*
X147791139Y-94464355D01*
X147582057Y-94532290D01*
X147364921Y-94566681D01*
X147145079Y-94566681D01*
X146927943Y-94532290D01*
X146718861Y-94464355D01*
X146522980Y-94364549D01*
X146345123Y-94235329D01*
X146189671Y-94079877D01*
X146060451Y-93902020D01*
X145960645Y-93706139D01*
X145892710Y-93497057D01*
X145858319Y-93279921D01*
X145854000Y-93170000D01*
X145854000Y-92170000D01*
X145858319Y-92060079D01*
X145892710Y-91842943D01*
X145960645Y-91633861D01*
X146060451Y-91437980D01*
X146189671Y-91260123D01*
X146345123Y-91104671D01*
X146522980Y-90975451D01*
X146718861Y-90875645D01*
X146927943Y-90807710D01*
X147145079Y-90773319D01*
X147364921Y-90773319D01*
X147582057Y-90807710D01*
G37*
G36*
X151782057Y-90807710D02*
G01*
X151991139Y-90875645D01*
X152187020Y-90975451D01*
X152364877Y-91104671D01*
X152520329Y-91260123D01*
X152649549Y-91437980D01*
X152749355Y-91633861D01*
X152817290Y-91842943D01*
X152851681Y-92060079D01*
X152856000Y-92170000D01*
X152856000Y-93170000D01*
X152851681Y-93279921D01*
X152817290Y-93497057D01*
X152749355Y-93706139D01*
X152649549Y-93902020D01*
X152520329Y-94079877D01*
X152364877Y-94235329D01*
X152187020Y-94364549D01*
X151991139Y-94464355D01*
X151782057Y-94532290D01*
X151564921Y-94566681D01*
X151345079Y-94566681D01*
X151127943Y-94532290D01*
X150918861Y-94464355D01*
X150722980Y-94364549D01*
X150545123Y-94235329D01*
X150389671Y-94079877D01*
X150260451Y-93902020D01*
X150160645Y-93706139D01*
X150092710Y-93497057D01*
X150058319Y-93279921D01*
X150054000Y-93170000D01*
X150054000Y-92170000D01*
X150058319Y-92060079D01*
X150092710Y-91842943D01*
X150160645Y-91633861D01*
X150260451Y-91437980D01*
X150389671Y-91260123D01*
X150545123Y-91104671D01*
X150722980Y-90975451D01*
X150918861Y-90875645D01*
X151127943Y-90807710D01*
X151345079Y-90773319D01*
X151564921Y-90773319D01*
X151782057Y-90807710D01*
G37*
G36*
X155982057Y-90807710D02*
G01*
X156191139Y-90875645D01*
X156387020Y-90975451D01*
X156564877Y-91104671D01*
X156720329Y-91260123D01*
X156849549Y-91437980D01*
X156949355Y-91633861D01*
X157017290Y-91842943D01*
X157051681Y-92060079D01*
X157056000Y-92170000D01*
X157056000Y-93170000D01*
X157051681Y-93279921D01*
X157017290Y-93497057D01*
X156949355Y-93706139D01*
X156849549Y-93902020D01*
X156720329Y-94079877D01*
X156564877Y-94235329D01*
X156387020Y-94364549D01*
X156191139Y-94464355D01*
X155982057Y-94532290D01*
X155764921Y-94566681D01*
X155545079Y-94566681D01*
X155327943Y-94532290D01*
X155118861Y-94464355D01*
X154922980Y-94364549D01*
X154745123Y-94235329D01*
X154589671Y-94079877D01*
X154460451Y-93902020D01*
X154360645Y-93706139D01*
X154292710Y-93497057D01*
X154258319Y-93279921D01*
X154254000Y-93170000D01*
X154254000Y-92170000D01*
X154258319Y-92060079D01*
X154292710Y-91842943D01*
X154360645Y-91633861D01*
X154460451Y-91437980D01*
X154589671Y-91260123D01*
X154745123Y-91104671D01*
X154922980Y-90975451D01*
X155118861Y-90875645D01*
X155327943Y-90807710D01*
X155545079Y-90773319D01*
X155764921Y-90773319D01*
X155982057Y-90807710D01*
G37*
G36*
X160182057Y-90807710D02*
G01*
X160391139Y-90875645D01*
X160587020Y-90975451D01*
X160764877Y-91104671D01*
X160920329Y-91260123D01*
X161049549Y-91437980D01*
X161149355Y-91633861D01*
X161217290Y-91842943D01*
X161251681Y-92060079D01*
X161256000Y-92170000D01*
X161256000Y-93170000D01*
X161251681Y-93279921D01*
X161217290Y-93497057D01*
X161149355Y-93706139D01*
X161049549Y-93902020D01*
X160920329Y-94079877D01*
X160764877Y-94235329D01*
X160587020Y-94364549D01*
X160391139Y-94464355D01*
X160182057Y-94532290D01*
X159964921Y-94566681D01*
X159745079Y-94566681D01*
X159527943Y-94532290D01*
X159318861Y-94464355D01*
X159122980Y-94364549D01*
X158945123Y-94235329D01*
X158789671Y-94079877D01*
X158660451Y-93902020D01*
X158560645Y-93706139D01*
X158492710Y-93497057D01*
X158458319Y-93279921D01*
X158454000Y-93170000D01*
X158454000Y-92170000D01*
X158458319Y-92060079D01*
X158492710Y-91842943D01*
X158560645Y-91633861D01*
X158660451Y-91437980D01*
X158789671Y-91260123D01*
X158945123Y-91104671D01*
X159122980Y-90975451D01*
X159318861Y-90875645D01*
X159527943Y-90807710D01*
X159745079Y-90773319D01*
X159964921Y-90773319D01*
X160182057Y-90807710D01*
G37*
G36*
X185302017Y-88447882D02*
G01*
X185318562Y-88458938D01*
X185329618Y-88475483D01*
X185333500Y-88495000D01*
X185333500Y-90495000D01*
X185329618Y-90514517D01*
X185318562Y-90531062D01*
X185302017Y-90542118D01*
X185282500Y-90546000D01*
X183377500Y-90546000D01*
X183357983Y-90542118D01*
X183341438Y-90531062D01*
X183330382Y-90514517D01*
X183326500Y-90495000D01*
X183326500Y-88495000D01*
X183330382Y-88475483D01*
X183341438Y-88458938D01*
X183357983Y-88447882D01*
X183377500Y-88444000D01*
X185282500Y-88444000D01*
X185302017Y-88447882D01*
G37*
G36*
X179337247Y-88448832D02*
G01*
X179348360Y-88448832D01*
X179391786Y-88457470D01*
X179484172Y-88472102D01*
X179513886Y-88481757D01*
X179541301Y-88487210D01*
X179579989Y-88503235D01*
X179633875Y-88520744D01*
X179684360Y-88546467D01*
X179723047Y-88562492D01*
X179746286Y-88578020D01*
X179774124Y-88592204D01*
X179849790Y-88647179D01*
X179886614Y-88671784D01*
X179894473Y-88679643D01*
X179901466Y-88684724D01*
X180012775Y-88796033D01*
X180017855Y-88803025D01*
X180025716Y-88810886D01*
X180050323Y-88847713D01*
X180105295Y-88923375D01*
X180119477Y-88951210D01*
X180135008Y-88974453D01*
X180151034Y-89013145D01*
X180176755Y-89063624D01*
X180194261Y-89117503D01*
X180210290Y-89156199D01*
X180215744Y-89183618D01*
X180225397Y-89213327D01*
X180240027Y-89305702D01*
X180248668Y-89349140D01*
X180249459Y-89365252D01*
X180250406Y-89371228D01*
X180253016Y-89437649D01*
X180253500Y-89447500D01*
X180253500Y-89542500D01*
X180253015Y-89552354D01*
X180250406Y-89618771D01*
X180249459Y-89624746D01*
X180248668Y-89640860D01*
X180240026Y-89684301D01*
X180225397Y-89776672D01*
X180215744Y-89806378D01*
X180210290Y-89833801D01*
X180194260Y-89872500D01*
X180176755Y-89926375D01*
X180151037Y-89976849D01*
X180135008Y-90015547D01*
X180119475Y-90038792D01*
X180105295Y-90066624D01*
X180050331Y-90142273D01*
X180025716Y-90179114D01*
X180017852Y-90186977D01*
X180012775Y-90193966D01*
X179901466Y-90305275D01*
X179894477Y-90310352D01*
X179886614Y-90318216D01*
X179849773Y-90342831D01*
X179774124Y-90397795D01*
X179746292Y-90411975D01*
X179723047Y-90427508D01*
X179684349Y-90443537D01*
X179633875Y-90469255D01*
X179580000Y-90486760D01*
X179541301Y-90502790D01*
X179513878Y-90508244D01*
X179484172Y-90517897D01*
X179391796Y-90532527D01*
X179348360Y-90541168D01*
X179337246Y-90541168D01*
X179328704Y-90542521D01*
X179171296Y-90542521D01*
X179162754Y-90541168D01*
X179151640Y-90541168D01*
X179108204Y-90532528D01*
X179015827Y-90517897D01*
X178986118Y-90508244D01*
X178958699Y-90502790D01*
X178920003Y-90486761D01*
X178866124Y-90469255D01*
X178815645Y-90443534D01*
X178776953Y-90427508D01*
X178753710Y-90411977D01*
X178725875Y-90397795D01*
X178650213Y-90342823D01*
X178613386Y-90318216D01*
X178605525Y-90310355D01*
X178598533Y-90305275D01*
X178487224Y-90193966D01*
X178482143Y-90186973D01*
X178474284Y-90179114D01*
X178449679Y-90142290D01*
X178394704Y-90066624D01*
X178380520Y-90038786D01*
X178364992Y-90015547D01*
X178348967Y-89976860D01*
X178323244Y-89926375D01*
X178305735Y-89872489D01*
X178289710Y-89833801D01*
X178284257Y-89806386D01*
X178274602Y-89776672D01*
X178259968Y-89684277D01*
X178251332Y-89640860D01*
X178250540Y-89624755D01*
X178249593Y-89618771D01*
X178246983Y-89552338D01*
X178246500Y-89542500D01*
X178246500Y-89447500D01*
X178246983Y-89437665D01*
X178249593Y-89371228D01*
X178250540Y-89365242D01*
X178251332Y-89349140D01*
X178259967Y-89305726D01*
X178274602Y-89213327D01*
X178284257Y-89183610D01*
X178289710Y-89156199D01*
X178305733Y-89117514D01*
X178323244Y-89063624D01*
X178348969Y-89013134D01*
X178364992Y-88974453D01*
X178380518Y-88951216D01*
X178394704Y-88923375D01*
X178449687Y-88847696D01*
X178474284Y-88810886D01*
X178482141Y-88803028D01*
X178487224Y-88796033D01*
X178598533Y-88684724D01*
X178605528Y-88679641D01*
X178613386Y-88671784D01*
X178650196Y-88647187D01*
X178725875Y-88592204D01*
X178753716Y-88578018D01*
X178776953Y-88562492D01*
X178815634Y-88546469D01*
X178866124Y-88520744D01*
X178920014Y-88503233D01*
X178958699Y-88487210D01*
X178986110Y-88481757D01*
X179015827Y-88472102D01*
X179108214Y-88457469D01*
X179151640Y-88448832D01*
X179162753Y-88448832D01*
X179171296Y-88447479D01*
X179328704Y-88447479D01*
X179337247Y-88448832D01*
G37*
G36*
X181877247Y-88448832D02*
G01*
X181888360Y-88448832D01*
X181931786Y-88457470D01*
X182024172Y-88472102D01*
X182053886Y-88481757D01*
X182081301Y-88487210D01*
X182119989Y-88503235D01*
X182173875Y-88520744D01*
X182224360Y-88546467D01*
X182263047Y-88562492D01*
X182286286Y-88578020D01*
X182314124Y-88592204D01*
X182389790Y-88647179D01*
X182426614Y-88671784D01*
X182434473Y-88679643D01*
X182441466Y-88684724D01*
X182552775Y-88796033D01*
X182557855Y-88803025D01*
X182565716Y-88810886D01*
X182590323Y-88847713D01*
X182645295Y-88923375D01*
X182659477Y-88951210D01*
X182675008Y-88974453D01*
X182691034Y-89013145D01*
X182716755Y-89063624D01*
X182734261Y-89117503D01*
X182750290Y-89156199D01*
X182755744Y-89183618D01*
X182765397Y-89213327D01*
X182780027Y-89305702D01*
X182788668Y-89349140D01*
X182789459Y-89365252D01*
X182790406Y-89371228D01*
X182793016Y-89437649D01*
X182793500Y-89447500D01*
X182793500Y-89542500D01*
X182793015Y-89552354D01*
X182790406Y-89618771D01*
X182789459Y-89624746D01*
X182788668Y-89640860D01*
X182780026Y-89684301D01*
X182765397Y-89776672D01*
X182755744Y-89806378D01*
X182750290Y-89833801D01*
X182734260Y-89872500D01*
X182716755Y-89926375D01*
X182691037Y-89976849D01*
X182675008Y-90015547D01*
X182659475Y-90038792D01*
X182645295Y-90066624D01*
X182590331Y-90142273D01*
X182565716Y-90179114D01*
X182557852Y-90186977D01*
X182552775Y-90193966D01*
X182441466Y-90305275D01*
X182434477Y-90310352D01*
X182426614Y-90318216D01*
X182389773Y-90342831D01*
X182314124Y-90397795D01*
X182286292Y-90411975D01*
X182263047Y-90427508D01*
X182224349Y-90443537D01*
X182173875Y-90469255D01*
X182120000Y-90486760D01*
X182081301Y-90502790D01*
X182053878Y-90508244D01*
X182024172Y-90517897D01*
X181931796Y-90532527D01*
X181888360Y-90541168D01*
X181877246Y-90541168D01*
X181868704Y-90542521D01*
X181711296Y-90542521D01*
X181702754Y-90541168D01*
X181691640Y-90541168D01*
X181648204Y-90532528D01*
X181555827Y-90517897D01*
X181526118Y-90508244D01*
X181498699Y-90502790D01*
X181460003Y-90486761D01*
X181406124Y-90469255D01*
X181355645Y-90443534D01*
X181316953Y-90427508D01*
X181293710Y-90411977D01*
X181265875Y-90397795D01*
X181190213Y-90342823D01*
X181153386Y-90318216D01*
X181145525Y-90310355D01*
X181138533Y-90305275D01*
X181027224Y-90193966D01*
X181022143Y-90186973D01*
X181014284Y-90179114D01*
X180989679Y-90142290D01*
X180934704Y-90066624D01*
X180920520Y-90038786D01*
X180904992Y-90015547D01*
X180888967Y-89976860D01*
X180863244Y-89926375D01*
X180845735Y-89872489D01*
X180829710Y-89833801D01*
X180824257Y-89806386D01*
X180814602Y-89776672D01*
X180799968Y-89684277D01*
X180791332Y-89640860D01*
X180790540Y-89624755D01*
X180789593Y-89618771D01*
X180786983Y-89552338D01*
X180786500Y-89542500D01*
X180786500Y-89447500D01*
X180786983Y-89437665D01*
X180789593Y-89371228D01*
X180790540Y-89365242D01*
X180791332Y-89349140D01*
X180799967Y-89305726D01*
X180814602Y-89213327D01*
X180824257Y-89183610D01*
X180829710Y-89156199D01*
X180845733Y-89117514D01*
X180863244Y-89063624D01*
X180888969Y-89013134D01*
X180904992Y-88974453D01*
X180920518Y-88951216D01*
X180934704Y-88923375D01*
X180989687Y-88847696D01*
X181014284Y-88810886D01*
X181022141Y-88803028D01*
X181027224Y-88796033D01*
X181138533Y-88684724D01*
X181145528Y-88679641D01*
X181153386Y-88671784D01*
X181190196Y-88647187D01*
X181265875Y-88592204D01*
X181293716Y-88578018D01*
X181316953Y-88562492D01*
X181355634Y-88546469D01*
X181406124Y-88520744D01*
X181460014Y-88503233D01*
X181498699Y-88487210D01*
X181526110Y-88481757D01*
X181555827Y-88472102D01*
X181648214Y-88457469D01*
X181691640Y-88448832D01*
X181702753Y-88448832D01*
X181711296Y-88447479D01*
X181868704Y-88447479D01*
X181877247Y-88448832D01*
G37*
G36*
X123223913Y-85276995D02*
G01*
X123239725Y-85283976D01*
X123247531Y-85285213D01*
X123280044Y-85301779D01*
X123325106Y-85321676D01*
X123403324Y-85399894D01*
X123423223Y-85444962D01*
X123439786Y-85477468D01*
X123441022Y-85485272D01*
X123448005Y-85501087D01*
X123455999Y-85570002D01*
X123455999Y-85579831D01*
X123456000Y-85579838D01*
X123456000Y-87667536D01*
X123456000Y-88769999D01*
X123448005Y-88838913D01*
X123441021Y-88854728D01*
X123439786Y-88862531D01*
X123423226Y-88895030D01*
X123403324Y-88940106D01*
X123325106Y-89018324D01*
X123280030Y-89038226D01*
X123247531Y-89054786D01*
X123239728Y-89056021D01*
X123223913Y-89063005D01*
X123154998Y-89070999D01*
X123145168Y-89070999D01*
X123145162Y-89071000D01*
X120964838Y-89071000D01*
X120964837Y-89070999D01*
X120955001Y-89071000D01*
X120886087Y-89063005D01*
X120870272Y-89056022D01*
X120862468Y-89054786D01*
X120829962Y-89038223D01*
X120784894Y-89018324D01*
X120706676Y-88940106D01*
X120686779Y-88895044D01*
X120670213Y-88862531D01*
X120668976Y-88854725D01*
X120661995Y-88838913D01*
X120654001Y-88769998D01*
X120654000Y-88760167D01*
X120654000Y-88760161D01*
X120654000Y-85579838D01*
X120654000Y-85579837D01*
X120654000Y-85570001D01*
X120661995Y-85501087D01*
X120668976Y-85485275D01*
X120670213Y-85477468D01*
X120686782Y-85444947D01*
X120706676Y-85399894D01*
X120784894Y-85321676D01*
X120829947Y-85301782D01*
X120862468Y-85285213D01*
X120870275Y-85283976D01*
X120886087Y-85276995D01*
X120955002Y-85269001D01*
X120964831Y-85269000D01*
X120964838Y-85269000D01*
X123145162Y-85269000D01*
X123154999Y-85269000D01*
X123223913Y-85276995D01*
G37*
G36*
X126582057Y-85307710D02*
G01*
X126791139Y-85375645D01*
X126987020Y-85475451D01*
X127164877Y-85604671D01*
X127320329Y-85760123D01*
X127449549Y-85937980D01*
X127549355Y-86133861D01*
X127617290Y-86342943D01*
X127651681Y-86560079D01*
X127656000Y-86670000D01*
X127656000Y-87670000D01*
X127651681Y-87779921D01*
X127617290Y-87997057D01*
X127549355Y-88206139D01*
X127449549Y-88402020D01*
X127320329Y-88579877D01*
X127164877Y-88735329D01*
X126987020Y-88864549D01*
X126791139Y-88964355D01*
X126582057Y-89032290D01*
X126364921Y-89066681D01*
X126145079Y-89066681D01*
X125927943Y-89032290D01*
X125718861Y-88964355D01*
X125522980Y-88864549D01*
X125345123Y-88735329D01*
X125189671Y-88579877D01*
X125060451Y-88402020D01*
X124960645Y-88206139D01*
X124892710Y-87997057D01*
X124858319Y-87779921D01*
X124854000Y-87670000D01*
X124854000Y-86670000D01*
X124858319Y-86560079D01*
X124892710Y-86342943D01*
X124960645Y-86133861D01*
X125060451Y-85937980D01*
X125189671Y-85760123D01*
X125345123Y-85604671D01*
X125522980Y-85475451D01*
X125718861Y-85375645D01*
X125927943Y-85307710D01*
X126145079Y-85273319D01*
X126364921Y-85273319D01*
X126582057Y-85307710D01*
G37*
G36*
X130782057Y-85307710D02*
G01*
X130991139Y-85375645D01*
X131187020Y-85475451D01*
X131364877Y-85604671D01*
X131520329Y-85760123D01*
X131649549Y-85937980D01*
X131749355Y-86133861D01*
X131817290Y-86342943D01*
X131851681Y-86560079D01*
X131856000Y-86670000D01*
X131856000Y-87670000D01*
X131851681Y-87779921D01*
X131817290Y-87997057D01*
X131749355Y-88206139D01*
X131649549Y-88402020D01*
X131520329Y-88579877D01*
X131364877Y-88735329D01*
X131187020Y-88864549D01*
X130991139Y-88964355D01*
X130782057Y-89032290D01*
X130564921Y-89066681D01*
X130345079Y-89066681D01*
X130127943Y-89032290D01*
X129918861Y-88964355D01*
X129722980Y-88864549D01*
X129545123Y-88735329D01*
X129389671Y-88579877D01*
X129260451Y-88402020D01*
X129160645Y-88206139D01*
X129092710Y-87997057D01*
X129058319Y-87779921D01*
X129054000Y-87670000D01*
X129054000Y-86670000D01*
X129058319Y-86560079D01*
X129092710Y-86342943D01*
X129160645Y-86133861D01*
X129260451Y-85937980D01*
X129389671Y-85760123D01*
X129545123Y-85604671D01*
X129722980Y-85475451D01*
X129918861Y-85375645D01*
X130127943Y-85307710D01*
X130345079Y-85273319D01*
X130564921Y-85273319D01*
X130782057Y-85307710D01*
G37*
G36*
X134982057Y-85307710D02*
G01*
X135191139Y-85375645D01*
X135387020Y-85475451D01*
X135564877Y-85604671D01*
X135720329Y-85760123D01*
X135849549Y-85937980D01*
X135949355Y-86133861D01*
X136017290Y-86342943D01*
X136051681Y-86560079D01*
X136056000Y-86670000D01*
X136056000Y-87670000D01*
X136051681Y-87779921D01*
X136017290Y-87997057D01*
X135949355Y-88206139D01*
X135849549Y-88402020D01*
X135720329Y-88579877D01*
X135564877Y-88735329D01*
X135387020Y-88864549D01*
X135191139Y-88964355D01*
X134982057Y-89032290D01*
X134764921Y-89066681D01*
X134545079Y-89066681D01*
X134327943Y-89032290D01*
X134118861Y-88964355D01*
X133922980Y-88864549D01*
X133745123Y-88735329D01*
X133589671Y-88579877D01*
X133460451Y-88402020D01*
X133360645Y-88206139D01*
X133292710Y-87997057D01*
X133258319Y-87779921D01*
X133254000Y-87670000D01*
X133254000Y-86670000D01*
X133258319Y-86560079D01*
X133292710Y-86342943D01*
X133360645Y-86133861D01*
X133460451Y-85937980D01*
X133589671Y-85760123D01*
X133745123Y-85604671D01*
X133922980Y-85475451D01*
X134118861Y-85375645D01*
X134327943Y-85307710D01*
X134545079Y-85273319D01*
X134764921Y-85273319D01*
X134982057Y-85307710D01*
G37*
G36*
X139182057Y-85307710D02*
G01*
X139391139Y-85375645D01*
X139587020Y-85475451D01*
X139764877Y-85604671D01*
X139920329Y-85760123D01*
X140049549Y-85937980D01*
X140149355Y-86133861D01*
X140217290Y-86342943D01*
X140251681Y-86560079D01*
X140256000Y-86670000D01*
X140256000Y-87670000D01*
X140251681Y-87779921D01*
X140217290Y-87997057D01*
X140149355Y-88206139D01*
X140049549Y-88402020D01*
X139920329Y-88579877D01*
X139764877Y-88735329D01*
X139587020Y-88864549D01*
X139391139Y-88964355D01*
X139182057Y-89032290D01*
X138964921Y-89066681D01*
X138745079Y-89066681D01*
X138527943Y-89032290D01*
X138318861Y-88964355D01*
X138122980Y-88864549D01*
X137945123Y-88735329D01*
X137789671Y-88579877D01*
X137660451Y-88402020D01*
X137560645Y-88206139D01*
X137492710Y-87997057D01*
X137458319Y-87779921D01*
X137454000Y-87670000D01*
X137454000Y-86670000D01*
X137458319Y-86560079D01*
X137492710Y-86342943D01*
X137560645Y-86133861D01*
X137660451Y-85937980D01*
X137789671Y-85760123D01*
X137945123Y-85604671D01*
X138122980Y-85475451D01*
X138318861Y-85375645D01*
X138527943Y-85307710D01*
X138745079Y-85273319D01*
X138964921Y-85273319D01*
X139182057Y-85307710D01*
G37*
G36*
X143382057Y-85307710D02*
G01*
X143591139Y-85375645D01*
X143787020Y-85475451D01*
X143964877Y-85604671D01*
X144120329Y-85760123D01*
X144249549Y-85937980D01*
X144349355Y-86133861D01*
X144417290Y-86342943D01*
X144451681Y-86560079D01*
X144456000Y-86670000D01*
X144456000Y-87670000D01*
X144451681Y-87779921D01*
X144417290Y-87997057D01*
X144349355Y-88206139D01*
X144249549Y-88402020D01*
X144120329Y-88579877D01*
X143964877Y-88735329D01*
X143787020Y-88864549D01*
X143591139Y-88964355D01*
X143382057Y-89032290D01*
X143164921Y-89066681D01*
X142945079Y-89066681D01*
X142727943Y-89032290D01*
X142518861Y-88964355D01*
X142322980Y-88864549D01*
X142145123Y-88735329D01*
X141989671Y-88579877D01*
X141860451Y-88402020D01*
X141760645Y-88206139D01*
X141692710Y-87997057D01*
X141658319Y-87779921D01*
X141654000Y-87670000D01*
X141654000Y-86670000D01*
X141658319Y-86560079D01*
X141692710Y-86342943D01*
X141760645Y-86133861D01*
X141860451Y-85937980D01*
X141989671Y-85760123D01*
X142145123Y-85604671D01*
X142322980Y-85475451D01*
X142518861Y-85375645D01*
X142727943Y-85307710D01*
X142945079Y-85273319D01*
X143164921Y-85273319D01*
X143382057Y-85307710D01*
G37*
G36*
X147582057Y-85307710D02*
G01*
X147791139Y-85375645D01*
X147987020Y-85475451D01*
X148164877Y-85604671D01*
X148320329Y-85760123D01*
X148449549Y-85937980D01*
X148549355Y-86133861D01*
X148617290Y-86342943D01*
X148651681Y-86560079D01*
X148656000Y-86670000D01*
X148656000Y-87670000D01*
X148651681Y-87779921D01*
X148617290Y-87997057D01*
X148549355Y-88206139D01*
X148449549Y-88402020D01*
X148320329Y-88579877D01*
X148164877Y-88735329D01*
X147987020Y-88864549D01*
X147791139Y-88964355D01*
X147582057Y-89032290D01*
X147364921Y-89066681D01*
X147145079Y-89066681D01*
X146927943Y-89032290D01*
X146718861Y-88964355D01*
X146522980Y-88864549D01*
X146345123Y-88735329D01*
X146189671Y-88579877D01*
X146060451Y-88402020D01*
X145960645Y-88206139D01*
X145892710Y-87997057D01*
X145858319Y-87779921D01*
X145854000Y-87670000D01*
X145854000Y-86670000D01*
X145858319Y-86560079D01*
X145892710Y-86342943D01*
X145960645Y-86133861D01*
X146060451Y-85937980D01*
X146189671Y-85760123D01*
X146345123Y-85604671D01*
X146522980Y-85475451D01*
X146718861Y-85375645D01*
X146927943Y-85307710D01*
X147145079Y-85273319D01*
X147364921Y-85273319D01*
X147582057Y-85307710D01*
G37*
G36*
X151782057Y-85307710D02*
G01*
X151991139Y-85375645D01*
X152187020Y-85475451D01*
X152364877Y-85604671D01*
X152520329Y-85760123D01*
X152649549Y-85937980D01*
X152749355Y-86133861D01*
X152817290Y-86342943D01*
X152851681Y-86560079D01*
X152856000Y-86670000D01*
X152856000Y-87670000D01*
X152851681Y-87779921D01*
X152817290Y-87997057D01*
X152749355Y-88206139D01*
X152649549Y-88402020D01*
X152520329Y-88579877D01*
X152364877Y-88735329D01*
X152187020Y-88864549D01*
X151991139Y-88964355D01*
X151782057Y-89032290D01*
X151564921Y-89066681D01*
X151345079Y-89066681D01*
X151127943Y-89032290D01*
X150918861Y-88964355D01*
X150722980Y-88864549D01*
X150545123Y-88735329D01*
X150389671Y-88579877D01*
X150260451Y-88402020D01*
X150160645Y-88206139D01*
X150092710Y-87997057D01*
X150058319Y-87779921D01*
X150054000Y-87670000D01*
X150054000Y-86670000D01*
X150058319Y-86560079D01*
X150092710Y-86342943D01*
X150160645Y-86133861D01*
X150260451Y-85937980D01*
X150389671Y-85760123D01*
X150545123Y-85604671D01*
X150722980Y-85475451D01*
X150918861Y-85375645D01*
X151127943Y-85307710D01*
X151345079Y-85273319D01*
X151564921Y-85273319D01*
X151782057Y-85307710D01*
G37*
G36*
X155982057Y-85307710D02*
G01*
X156191139Y-85375645D01*
X156387020Y-85475451D01*
X156564877Y-85604671D01*
X156720329Y-85760123D01*
X156849549Y-85937980D01*
X156949355Y-86133861D01*
X157017290Y-86342943D01*
X157051681Y-86560079D01*
X157056000Y-86670000D01*
X157056000Y-87670000D01*
X157051681Y-87779921D01*
X157017290Y-87997057D01*
X156949355Y-88206139D01*
X156849549Y-88402020D01*
X156720329Y-88579877D01*
X156564877Y-88735329D01*
X156387020Y-88864549D01*
X156191139Y-88964355D01*
X155982057Y-89032290D01*
X155764921Y-89066681D01*
X155545079Y-89066681D01*
X155327943Y-89032290D01*
X155118861Y-88964355D01*
X154922980Y-88864549D01*
X154745123Y-88735329D01*
X154589671Y-88579877D01*
X154460451Y-88402020D01*
X154360645Y-88206139D01*
X154292710Y-87997057D01*
X154258319Y-87779921D01*
X154254000Y-87670000D01*
X154254000Y-86670000D01*
X154258319Y-86560079D01*
X154292710Y-86342943D01*
X154360645Y-86133861D01*
X154460451Y-85937980D01*
X154589671Y-85760123D01*
X154745123Y-85604671D01*
X154922980Y-85475451D01*
X155118861Y-85375645D01*
X155327943Y-85307710D01*
X155545079Y-85273319D01*
X155764921Y-85273319D01*
X155982057Y-85307710D01*
G37*
G36*
X160182057Y-85307710D02*
G01*
X160391139Y-85375645D01*
X160587020Y-85475451D01*
X160764877Y-85604671D01*
X160920329Y-85760123D01*
X161049549Y-85937980D01*
X161149355Y-86133861D01*
X161217290Y-86342943D01*
X161251681Y-86560079D01*
X161256000Y-86670000D01*
X161256000Y-87670000D01*
X161251681Y-87779921D01*
X161217290Y-87997057D01*
X161149355Y-88206139D01*
X161049549Y-88402020D01*
X160920329Y-88579877D01*
X160764877Y-88735329D01*
X160587020Y-88864549D01*
X160391139Y-88964355D01*
X160182057Y-89032290D01*
X159964921Y-89066681D01*
X159745079Y-89066681D01*
X159527943Y-89032290D01*
X159318861Y-88964355D01*
X159122980Y-88864549D01*
X158945123Y-88735329D01*
X158789671Y-88579877D01*
X158660451Y-88402020D01*
X158560645Y-88206139D01*
X158492710Y-87997057D01*
X158458319Y-87779921D01*
X158454000Y-87670000D01*
X158454000Y-86670000D01*
X158458319Y-86560079D01*
X158492710Y-86342943D01*
X158560645Y-86133861D01*
X158660451Y-85937980D01*
X158789671Y-85760123D01*
X158945123Y-85604671D01*
X159122980Y-85475451D01*
X159318861Y-85375645D01*
X159527943Y-85307710D01*
X159745079Y-85273319D01*
X159964921Y-85273319D01*
X160182057Y-85307710D01*
G37*
G36*
X177216199Y-79893662D02*
G01*
X177263954Y-79893662D01*
X177305194Y-79902427D01*
X177340901Y-79905945D01*
X177385759Y-79919552D01*
X177437973Y-79930651D01*
X177471384Y-79945526D01*
X177500435Y-79954339D01*
X177546602Y-79979015D01*
X177600500Y-80003012D01*
X177625554Y-80021215D01*
X177647453Y-80032920D01*
X177692128Y-80069584D01*
X177744430Y-80107584D01*
X177761411Y-80126443D01*
X177776320Y-80138679D01*
X177816387Y-80187501D01*
X177863473Y-80239795D01*
X177873364Y-80256927D01*
X177882079Y-80267546D01*
X177914306Y-80327840D01*
X177952427Y-80393867D01*
X177956813Y-80407368D01*
X177960660Y-80414564D01*
X177981861Y-80484455D01*
X178007404Y-80563067D01*
X178008303Y-80571623D01*
X178009054Y-80574098D01*
X178016371Y-80648389D01*
X178026000Y-80740000D01*
X178016370Y-80831619D01*
X178009054Y-80905901D01*
X178008303Y-80908375D01*
X178007404Y-80916933D01*
X177981856Y-80995558D01*
X177960660Y-81065435D01*
X177956814Y-81072629D01*
X177952427Y-81086133D01*
X177914299Y-81152172D01*
X177882079Y-81212453D01*
X177873366Y-81223069D01*
X177863473Y-81240205D01*
X177816378Y-81292509D01*
X177776320Y-81341320D01*
X177761414Y-81353552D01*
X177744430Y-81372416D01*
X177692118Y-81410423D01*
X177647453Y-81447079D01*
X177625559Y-81458780D01*
X177600500Y-81476988D01*
X177546591Y-81500989D01*
X177500435Y-81525660D01*
X177471391Y-81534470D01*
X177437973Y-81549349D01*
X177385748Y-81560449D01*
X177340901Y-81574054D01*
X177305203Y-81577570D01*
X177263954Y-81586338D01*
X177216188Y-81586338D01*
X177175000Y-81590395D01*
X177133811Y-81586338D01*
X177086046Y-81586338D01*
X177044797Y-81577570D01*
X177009098Y-81574054D01*
X176964248Y-81560448D01*
X176912027Y-81549349D01*
X176878610Y-81534471D01*
X176849564Y-81525660D01*
X176803402Y-81500986D01*
X176749500Y-81476988D01*
X176724443Y-81458783D01*
X176702546Y-81447079D01*
X176657873Y-81410416D01*
X176605570Y-81372416D01*
X176588588Y-81353555D01*
X176573679Y-81341320D01*
X176533610Y-81292496D01*
X176486527Y-81240205D01*
X176476636Y-81223073D01*
X176467920Y-81212453D01*
X176435687Y-81152148D01*
X176397573Y-81086133D01*
X176393186Y-81072634D01*
X176389339Y-81065435D01*
X176368128Y-80995512D01*
X176342596Y-80916933D01*
X176341697Y-80908380D01*
X176340945Y-80905901D01*
X176333613Y-80831467D01*
X176324000Y-80740000D01*
X176333612Y-80648540D01*
X176340945Y-80574098D01*
X176341697Y-80571618D01*
X176342596Y-80563067D01*
X176368123Y-80484502D01*
X176389339Y-80414564D01*
X176393187Y-80407363D01*
X176397573Y-80393867D01*
X176435680Y-80327863D01*
X176467920Y-80267546D01*
X176476638Y-80256923D01*
X176486527Y-80239795D01*
X176533601Y-80187513D01*
X176573679Y-80138679D01*
X176588591Y-80126440D01*
X176605570Y-80107584D01*
X176657862Y-80069591D01*
X176702546Y-80032920D01*
X176724448Y-80021213D01*
X176749500Y-80003012D01*
X176803391Y-79979018D01*
X176849564Y-79954339D01*
X176878617Y-79945525D01*
X176912027Y-79930651D01*
X176964237Y-79919553D01*
X177009098Y-79905945D01*
X177044806Y-79902427D01*
X177086046Y-79893662D01*
X177133801Y-79893662D01*
X177175000Y-79889604D01*
X177216199Y-79893662D01*
G37*
G36*
X179986199Y-79893662D02*
G01*
X180033954Y-79893662D01*
X180075194Y-79902427D01*
X180110901Y-79905945D01*
X180155759Y-79919552D01*
X180207973Y-79930651D01*
X180241384Y-79945526D01*
X180270435Y-79954339D01*
X180316602Y-79979015D01*
X180370500Y-80003012D01*
X180395554Y-80021215D01*
X180417453Y-80032920D01*
X180462128Y-80069584D01*
X180514430Y-80107584D01*
X180531411Y-80126443D01*
X180546320Y-80138679D01*
X180586387Y-80187501D01*
X180633473Y-80239795D01*
X180643364Y-80256927D01*
X180652079Y-80267546D01*
X180684306Y-80327840D01*
X180722427Y-80393867D01*
X180726813Y-80407368D01*
X180730660Y-80414564D01*
X180751861Y-80484455D01*
X180777404Y-80563067D01*
X180778303Y-80571623D01*
X180779054Y-80574098D01*
X180786371Y-80648389D01*
X180796000Y-80740000D01*
X180786370Y-80831619D01*
X180779054Y-80905901D01*
X180778303Y-80908375D01*
X180777404Y-80916933D01*
X180751856Y-80995558D01*
X180730660Y-81065435D01*
X180726814Y-81072629D01*
X180722427Y-81086133D01*
X180684299Y-81152172D01*
X180652079Y-81212453D01*
X180643366Y-81223069D01*
X180633473Y-81240205D01*
X180586378Y-81292509D01*
X180546320Y-81341320D01*
X180531414Y-81353552D01*
X180514430Y-81372416D01*
X180462118Y-81410423D01*
X180417453Y-81447079D01*
X180395559Y-81458780D01*
X180370500Y-81476988D01*
X180316591Y-81500989D01*
X180270435Y-81525660D01*
X180241391Y-81534470D01*
X180207973Y-81549349D01*
X180155748Y-81560449D01*
X180110901Y-81574054D01*
X180075203Y-81577570D01*
X180033954Y-81586338D01*
X179986188Y-81586338D01*
X179945000Y-81590395D01*
X179903811Y-81586338D01*
X179856046Y-81586338D01*
X179814797Y-81577570D01*
X179779098Y-81574054D01*
X179734248Y-81560448D01*
X179682027Y-81549349D01*
X179648610Y-81534471D01*
X179619564Y-81525660D01*
X179573402Y-81500986D01*
X179519500Y-81476988D01*
X179494443Y-81458783D01*
X179472546Y-81447079D01*
X179427873Y-81410416D01*
X179375570Y-81372416D01*
X179358588Y-81353555D01*
X179343679Y-81341320D01*
X179303610Y-81292496D01*
X179256527Y-81240205D01*
X179246636Y-81223073D01*
X179237920Y-81212453D01*
X179205687Y-81152148D01*
X179167573Y-81086133D01*
X179163186Y-81072634D01*
X179159339Y-81065435D01*
X179138128Y-80995512D01*
X179112596Y-80916933D01*
X179111697Y-80908380D01*
X179110945Y-80905901D01*
X179103613Y-80831467D01*
X179094000Y-80740000D01*
X179103612Y-80648540D01*
X179110945Y-80574098D01*
X179111697Y-80571618D01*
X179112596Y-80563067D01*
X179138123Y-80484502D01*
X179159339Y-80414564D01*
X179163187Y-80407363D01*
X179167573Y-80393867D01*
X179205680Y-80327863D01*
X179237920Y-80267546D01*
X179246638Y-80256923D01*
X179256527Y-80239795D01*
X179303601Y-80187513D01*
X179343679Y-80138679D01*
X179358591Y-80126440D01*
X179375570Y-80107584D01*
X179427862Y-80069591D01*
X179472546Y-80032920D01*
X179494448Y-80021213D01*
X179519500Y-80003012D01*
X179573391Y-79979018D01*
X179619564Y-79954339D01*
X179648617Y-79945525D01*
X179682027Y-79930651D01*
X179734237Y-79919553D01*
X179779098Y-79905945D01*
X179814806Y-79902427D01*
X179856046Y-79893662D01*
X179903801Y-79893662D01*
X179945000Y-79889604D01*
X179986199Y-79893662D01*
G37*
G36*
X182756199Y-79893662D02*
G01*
X182803954Y-79893662D01*
X182845194Y-79902427D01*
X182880901Y-79905945D01*
X182925759Y-79919552D01*
X182977973Y-79930651D01*
X183011384Y-79945526D01*
X183040435Y-79954339D01*
X183086602Y-79979015D01*
X183140500Y-80003012D01*
X183165554Y-80021215D01*
X183187453Y-80032920D01*
X183232128Y-80069584D01*
X183284430Y-80107584D01*
X183301411Y-80126443D01*
X183316320Y-80138679D01*
X183356387Y-80187501D01*
X183403473Y-80239795D01*
X183413364Y-80256927D01*
X183422079Y-80267546D01*
X183454306Y-80327840D01*
X183492427Y-80393867D01*
X183496813Y-80407368D01*
X183500660Y-80414564D01*
X183521861Y-80484455D01*
X183547404Y-80563067D01*
X183548303Y-80571623D01*
X183549054Y-80574098D01*
X183556371Y-80648389D01*
X183566000Y-80740000D01*
X183556370Y-80831619D01*
X183549054Y-80905901D01*
X183548303Y-80908375D01*
X183547404Y-80916933D01*
X183521856Y-80995558D01*
X183500660Y-81065435D01*
X183496814Y-81072629D01*
X183492427Y-81086133D01*
X183454299Y-81152172D01*
X183422079Y-81212453D01*
X183413366Y-81223069D01*
X183403473Y-81240205D01*
X183356378Y-81292509D01*
X183316320Y-81341320D01*
X183301414Y-81353552D01*
X183284430Y-81372416D01*
X183232118Y-81410423D01*
X183187453Y-81447079D01*
X183165559Y-81458780D01*
X183140500Y-81476988D01*
X183086591Y-81500989D01*
X183040435Y-81525660D01*
X183011391Y-81534470D01*
X182977973Y-81549349D01*
X182925748Y-81560449D01*
X182880901Y-81574054D01*
X182845203Y-81577570D01*
X182803954Y-81586338D01*
X182756188Y-81586338D01*
X182715000Y-81590395D01*
X182673811Y-81586338D01*
X182626046Y-81586338D01*
X182584797Y-81577570D01*
X182549098Y-81574054D01*
X182504248Y-81560448D01*
X182452027Y-81549349D01*
X182418610Y-81534471D01*
X182389564Y-81525660D01*
X182343402Y-81500986D01*
X182289500Y-81476988D01*
X182264443Y-81458783D01*
X182242546Y-81447079D01*
X182197873Y-81410416D01*
X182145570Y-81372416D01*
X182128588Y-81353555D01*
X182113679Y-81341320D01*
X182073610Y-81292496D01*
X182026527Y-81240205D01*
X182016636Y-81223073D01*
X182007920Y-81212453D01*
X181975687Y-81152148D01*
X181937573Y-81086133D01*
X181933186Y-81072634D01*
X181929339Y-81065435D01*
X181908128Y-80995512D01*
X181882596Y-80916933D01*
X181881697Y-80908380D01*
X181880945Y-80905901D01*
X181873613Y-80831467D01*
X181864000Y-80740000D01*
X181873612Y-80648540D01*
X181880945Y-80574098D01*
X181881697Y-80571618D01*
X181882596Y-80563067D01*
X181908123Y-80484502D01*
X181929339Y-80414564D01*
X181933187Y-80407363D01*
X181937573Y-80393867D01*
X181975680Y-80327863D01*
X182007920Y-80267546D01*
X182016638Y-80256923D01*
X182026527Y-80239795D01*
X182073601Y-80187513D01*
X182113679Y-80138679D01*
X182128591Y-80126440D01*
X182145570Y-80107584D01*
X182197862Y-80069591D01*
X182242546Y-80032920D01*
X182264448Y-80021213D01*
X182289500Y-80003012D01*
X182343391Y-79979018D01*
X182389564Y-79954339D01*
X182418617Y-79945525D01*
X182452027Y-79930651D01*
X182504237Y-79919553D01*
X182549098Y-79905945D01*
X182584806Y-79902427D01*
X182626046Y-79893662D01*
X182673801Y-79893662D01*
X182715000Y-79889604D01*
X182756199Y-79893662D01*
G37*
G36*
X185526199Y-79893662D02*
G01*
X185573954Y-79893662D01*
X185615194Y-79902427D01*
X185650901Y-79905945D01*
X185695759Y-79919552D01*
X185747973Y-79930651D01*
X185781384Y-79945526D01*
X185810435Y-79954339D01*
X185856602Y-79979015D01*
X185910500Y-80003012D01*
X185935554Y-80021215D01*
X185957453Y-80032920D01*
X186002128Y-80069584D01*
X186054430Y-80107584D01*
X186071411Y-80126443D01*
X186086320Y-80138679D01*
X186126387Y-80187501D01*
X186173473Y-80239795D01*
X186183364Y-80256927D01*
X186192079Y-80267546D01*
X186224306Y-80327840D01*
X186262427Y-80393867D01*
X186266813Y-80407368D01*
X186270660Y-80414564D01*
X186291861Y-80484455D01*
X186317404Y-80563067D01*
X186318303Y-80571623D01*
X186319054Y-80574098D01*
X186326371Y-80648389D01*
X186336000Y-80740000D01*
X186326370Y-80831619D01*
X186319054Y-80905901D01*
X186318303Y-80908375D01*
X186317404Y-80916933D01*
X186291856Y-80995558D01*
X186270660Y-81065435D01*
X186266814Y-81072629D01*
X186262427Y-81086133D01*
X186224299Y-81152172D01*
X186192079Y-81212453D01*
X186183366Y-81223069D01*
X186173473Y-81240205D01*
X186126378Y-81292509D01*
X186086320Y-81341320D01*
X186071414Y-81353552D01*
X186054430Y-81372416D01*
X186002118Y-81410423D01*
X185957453Y-81447079D01*
X185935559Y-81458780D01*
X185910500Y-81476988D01*
X185856591Y-81500989D01*
X185810435Y-81525660D01*
X185781391Y-81534470D01*
X185747973Y-81549349D01*
X185695748Y-81560449D01*
X185650901Y-81574054D01*
X185615203Y-81577570D01*
X185573954Y-81586338D01*
X185526188Y-81586338D01*
X185485000Y-81590395D01*
X185443811Y-81586338D01*
X185396046Y-81586338D01*
X185354797Y-81577570D01*
X185319098Y-81574054D01*
X185274248Y-81560448D01*
X185222027Y-81549349D01*
X185188610Y-81534471D01*
X185159564Y-81525660D01*
X185113402Y-81500986D01*
X185059500Y-81476988D01*
X185034443Y-81458783D01*
X185012546Y-81447079D01*
X184967873Y-81410416D01*
X184915570Y-81372416D01*
X184898588Y-81353555D01*
X184883679Y-81341320D01*
X184843610Y-81292496D01*
X184796527Y-81240205D01*
X184786636Y-81223073D01*
X184777920Y-81212453D01*
X184745687Y-81152148D01*
X184707573Y-81086133D01*
X184703186Y-81072634D01*
X184699339Y-81065435D01*
X184678128Y-80995512D01*
X184652596Y-80916933D01*
X184651697Y-80908380D01*
X184650945Y-80905901D01*
X184643613Y-80831467D01*
X184634000Y-80740000D01*
X184643612Y-80648540D01*
X184650945Y-80574098D01*
X184651697Y-80571618D01*
X184652596Y-80563067D01*
X184678123Y-80484502D01*
X184699339Y-80414564D01*
X184703187Y-80407363D01*
X184707573Y-80393867D01*
X184745680Y-80327863D01*
X184777920Y-80267546D01*
X184786638Y-80256923D01*
X184796527Y-80239795D01*
X184843601Y-80187513D01*
X184883679Y-80138679D01*
X184898591Y-80126440D01*
X184915570Y-80107584D01*
X184967862Y-80069591D01*
X185012546Y-80032920D01*
X185034448Y-80021213D01*
X185059500Y-80003012D01*
X185113391Y-79979018D01*
X185159564Y-79954339D01*
X185188617Y-79945525D01*
X185222027Y-79930651D01*
X185274237Y-79919553D01*
X185319098Y-79905945D01*
X185354806Y-79902427D01*
X185396046Y-79893662D01*
X185443801Y-79893662D01*
X185485000Y-79889604D01*
X185526199Y-79893662D01*
G37*
G36*
X122114543Y-78323686D02*
G01*
X122170880Y-78323686D01*
X122232437Y-78332964D01*
X122297630Y-78338095D01*
X122350181Y-78350711D01*
X122400050Y-78358228D01*
X122465215Y-78378328D01*
X122534285Y-78394911D01*
X122578943Y-78413409D01*
X122621519Y-78426542D01*
X122688365Y-78458733D01*
X122759139Y-78488049D01*
X122795466Y-78510310D01*
X122830322Y-78527096D01*
X122896620Y-78572297D01*
X122966655Y-78615215D01*
X122994700Y-78639167D01*
X123021813Y-78657653D01*
X123085119Y-78716392D01*
X123151723Y-78773277D01*
X123171946Y-78796956D01*
X123191706Y-78815290D01*
X123249478Y-78887734D01*
X123309785Y-78958345D01*
X123323048Y-78979988D01*
X123336206Y-78996488D01*
X123385834Y-79082447D01*
X123436951Y-79165861D01*
X123444458Y-79183984D01*
X123452088Y-79197200D01*
X123490994Y-79296331D01*
X123530089Y-79390715D01*
X123533322Y-79404184D01*
X123536757Y-79412935D01*
X123562473Y-79525604D01*
X123586905Y-79627370D01*
X123587538Y-79635423D01*
X123588330Y-79638890D01*
X123598656Y-79776692D01*
X123606000Y-79870000D01*
X123598656Y-79963315D01*
X123588330Y-80101109D01*
X123587538Y-80104574D01*
X123586905Y-80112630D01*
X123562468Y-80214414D01*
X123536757Y-80327064D01*
X123533323Y-80335812D01*
X123530089Y-80349285D01*
X123490986Y-80443686D01*
X123452088Y-80542799D01*
X123444459Y-80556011D01*
X123436951Y-80574139D01*
X123385824Y-80657569D01*
X123336206Y-80743511D01*
X123323050Y-80760007D01*
X123309785Y-80781655D01*
X123249466Y-80852279D01*
X123191706Y-80924709D01*
X123171951Y-80943038D01*
X123151723Y-80966723D01*
X123085105Y-81023618D01*
X123021813Y-81082346D01*
X122994706Y-81100827D01*
X122966655Y-81124785D01*
X122896606Y-81167710D01*
X122830322Y-81212903D01*
X122795474Y-81229684D01*
X122759139Y-81251951D01*
X122688350Y-81281272D01*
X122621519Y-81313457D01*
X122578952Y-81326586D01*
X122534285Y-81345089D01*
X122465200Y-81361674D01*
X122400050Y-81381771D01*
X122350189Y-81389286D01*
X122297630Y-81401905D01*
X122232433Y-81407035D01*
X122170880Y-81416314D01*
X122114543Y-81416314D01*
X122055000Y-81421000D01*
X121995457Y-81416314D01*
X121939120Y-81416314D01*
X121877565Y-81407035D01*
X121812370Y-81401905D01*
X121759811Y-81389286D01*
X121709949Y-81381771D01*
X121644796Y-81361673D01*
X121575715Y-81345089D01*
X121531047Y-81326587D01*
X121488481Y-81313457D01*
X121421646Y-81281271D01*
X121350861Y-81251951D01*
X121314528Y-81229686D01*
X121279675Y-81212902D01*
X121213377Y-81167700D01*
X121143345Y-81124785D01*
X121115301Y-81100833D01*
X121088188Y-81082348D01*
X121024880Y-81023607D01*
X120958277Y-80966723D01*
X120938052Y-80943043D01*
X120918293Y-80924709D01*
X120860518Y-80852261D01*
X120800215Y-80781655D01*
X120786952Y-80760012D01*
X120773793Y-80743511D01*
X120724157Y-80657540D01*
X120673049Y-80574139D01*
X120665542Y-80556017D01*
X120657911Y-80542799D01*
X120618994Y-80443640D01*
X120579911Y-80349285D01*
X120576678Y-80335819D01*
X120573242Y-80327064D01*
X120547511Y-80214329D01*
X120523095Y-80112630D01*
X120522461Y-80104581D01*
X120521669Y-80101109D01*
X120511323Y-79963050D01*
X120504000Y-79870000D01*
X120511322Y-79776957D01*
X120521669Y-79638890D01*
X120522461Y-79635416D01*
X120523095Y-79627370D01*
X120547506Y-79525689D01*
X120573242Y-79412935D01*
X120576678Y-79404178D01*
X120579911Y-79390715D01*
X120618986Y-79296377D01*
X120657911Y-79197200D01*
X120665544Y-79183978D01*
X120673049Y-79165861D01*
X120724147Y-79082475D01*
X120773793Y-78996488D01*
X120786955Y-78979983D01*
X120800215Y-78958345D01*
X120860506Y-78887752D01*
X120918293Y-78815290D01*
X120938056Y-78796951D01*
X120958277Y-78773277D01*
X121024866Y-78716404D01*
X121088188Y-78657651D01*
X121115307Y-78639161D01*
X121143345Y-78615215D01*
X121213362Y-78572308D01*
X121279675Y-78527097D01*
X121314536Y-78510308D01*
X121350861Y-78488049D01*
X121421632Y-78458734D01*
X121488481Y-78426542D01*
X121531057Y-78413408D01*
X121575715Y-78394911D01*
X121644781Y-78378329D01*
X121709949Y-78358228D01*
X121759820Y-78350711D01*
X121812370Y-78338095D01*
X121877561Y-78332964D01*
X121939120Y-78323686D01*
X121995457Y-78323686D01*
X122055000Y-78319000D01*
X122114543Y-78323686D01*
G37*
G36*
X159914543Y-78323686D02*
G01*
X159970880Y-78323686D01*
X160032437Y-78332964D01*
X160097630Y-78338095D01*
X160150181Y-78350711D01*
X160200050Y-78358228D01*
X160265215Y-78378328D01*
X160334285Y-78394911D01*
X160378943Y-78413409D01*
X160421519Y-78426542D01*
X160488365Y-78458733D01*
X160559139Y-78488049D01*
X160595466Y-78510310D01*
X160630322Y-78527096D01*
X160696620Y-78572297D01*
X160766655Y-78615215D01*
X160794700Y-78639167D01*
X160821813Y-78657653D01*
X160885119Y-78716392D01*
X160951723Y-78773277D01*
X160971946Y-78796956D01*
X160991706Y-78815290D01*
X161049478Y-78887734D01*
X161109785Y-78958345D01*
X161123048Y-78979988D01*
X161136206Y-78996488D01*
X161185834Y-79082447D01*
X161236951Y-79165861D01*
X161244458Y-79183984D01*
X161252088Y-79197200D01*
X161290994Y-79296331D01*
X161330089Y-79390715D01*
X161333322Y-79404184D01*
X161336757Y-79412935D01*
X161362473Y-79525604D01*
X161386905Y-79627370D01*
X161387538Y-79635423D01*
X161388330Y-79638890D01*
X161398656Y-79776692D01*
X161406000Y-79870000D01*
X161398656Y-79963315D01*
X161388330Y-80101109D01*
X161387538Y-80104574D01*
X161386905Y-80112630D01*
X161362468Y-80214414D01*
X161336757Y-80327064D01*
X161333323Y-80335812D01*
X161330089Y-80349285D01*
X161290986Y-80443686D01*
X161252088Y-80542799D01*
X161244459Y-80556011D01*
X161236951Y-80574139D01*
X161185824Y-80657569D01*
X161136206Y-80743511D01*
X161123050Y-80760007D01*
X161109785Y-80781655D01*
X161049466Y-80852279D01*
X160991706Y-80924709D01*
X160971951Y-80943038D01*
X160951723Y-80966723D01*
X160885105Y-81023618D01*
X160821813Y-81082346D01*
X160794706Y-81100827D01*
X160766655Y-81124785D01*
X160696606Y-81167710D01*
X160630322Y-81212903D01*
X160595474Y-81229684D01*
X160559139Y-81251951D01*
X160488350Y-81281272D01*
X160421519Y-81313457D01*
X160378952Y-81326586D01*
X160334285Y-81345089D01*
X160265200Y-81361674D01*
X160200050Y-81381771D01*
X160150189Y-81389286D01*
X160097630Y-81401905D01*
X160032433Y-81407035D01*
X159970880Y-81416314D01*
X159914543Y-81416314D01*
X159855000Y-81421000D01*
X159795457Y-81416314D01*
X159739120Y-81416314D01*
X159677565Y-81407035D01*
X159612370Y-81401905D01*
X159559811Y-81389286D01*
X159509949Y-81381771D01*
X159444796Y-81361673D01*
X159375715Y-81345089D01*
X159331047Y-81326587D01*
X159288481Y-81313457D01*
X159221646Y-81281271D01*
X159150861Y-81251951D01*
X159114528Y-81229686D01*
X159079675Y-81212902D01*
X159013377Y-81167700D01*
X158943345Y-81124785D01*
X158915301Y-81100833D01*
X158888188Y-81082348D01*
X158824880Y-81023607D01*
X158758277Y-80966723D01*
X158738052Y-80943043D01*
X158718293Y-80924709D01*
X158660518Y-80852261D01*
X158600215Y-80781655D01*
X158586952Y-80760012D01*
X158573793Y-80743511D01*
X158524157Y-80657540D01*
X158473049Y-80574139D01*
X158465542Y-80556017D01*
X158457911Y-80542799D01*
X158418994Y-80443640D01*
X158379911Y-80349285D01*
X158376678Y-80335819D01*
X158373242Y-80327064D01*
X158347511Y-80214329D01*
X158323095Y-80112630D01*
X158322461Y-80104581D01*
X158321669Y-80101109D01*
X158311323Y-79963050D01*
X158304000Y-79870000D01*
X158311322Y-79776957D01*
X158321669Y-79638890D01*
X158322461Y-79635416D01*
X158323095Y-79627370D01*
X158347506Y-79525689D01*
X158373242Y-79412935D01*
X158376678Y-79404178D01*
X158379911Y-79390715D01*
X158418986Y-79296377D01*
X158457911Y-79197200D01*
X158465544Y-79183978D01*
X158473049Y-79165861D01*
X158524147Y-79082475D01*
X158573793Y-78996488D01*
X158586955Y-78979983D01*
X158600215Y-78958345D01*
X158660506Y-78887752D01*
X158718293Y-78815290D01*
X158738056Y-78796951D01*
X158758277Y-78773277D01*
X158824866Y-78716404D01*
X158888188Y-78657651D01*
X158915307Y-78639161D01*
X158943345Y-78615215D01*
X159013362Y-78572308D01*
X159079675Y-78527097D01*
X159114536Y-78510308D01*
X159150861Y-78488049D01*
X159221632Y-78458734D01*
X159288481Y-78426542D01*
X159331057Y-78413408D01*
X159375715Y-78394911D01*
X159444781Y-78378329D01*
X159509949Y-78358228D01*
X159559820Y-78350711D01*
X159612370Y-78338095D01*
X159677561Y-78332964D01*
X159739120Y-78323686D01*
X159795457Y-78323686D01*
X159855000Y-78319000D01*
X159914543Y-78323686D01*
G37*
G36*
X169247288Y-77311899D02*
G01*
X169516838Y-77387423D01*
X169773593Y-77498947D01*
X170012771Y-77644395D01*
X170229916Y-77821055D01*
X170420984Y-78025639D01*
X170582414Y-78254333D01*
X170711200Y-78502879D01*
X170804943Y-78766647D01*
X170861897Y-79040722D01*
X170881000Y-79320000D01*
X170861897Y-79599278D01*
X170804943Y-79873353D01*
X170711200Y-80137121D01*
X170582414Y-80385667D01*
X170420984Y-80614361D01*
X170229916Y-80818945D01*
X170012771Y-80995605D01*
X169773593Y-81141053D01*
X169516838Y-81252577D01*
X169247288Y-81328101D01*
X168969965Y-81366219D01*
X168690035Y-81366219D01*
X168412712Y-81328101D01*
X168143162Y-81252577D01*
X167886407Y-81141053D01*
X167647229Y-80995605D01*
X167430084Y-80818945D01*
X167239016Y-80614361D01*
X167077586Y-80385667D01*
X166948800Y-80137121D01*
X166855057Y-79873353D01*
X166798103Y-79599278D01*
X166779000Y-79320000D01*
X166798103Y-79040722D01*
X166855057Y-78766647D01*
X166948800Y-78502879D01*
X167077586Y-78254333D01*
X167239016Y-78025639D01*
X167430084Y-77821055D01*
X167647229Y-77644395D01*
X167886407Y-77498947D01*
X168143162Y-77387423D01*
X168412712Y-77311899D01*
X168690035Y-77273781D01*
X168969965Y-77273781D01*
X169247288Y-77311899D01*
G37*
G36*
X194247288Y-77311899D02*
G01*
X194516838Y-77387423D01*
X194773593Y-77498947D01*
X195012771Y-77644395D01*
X195229916Y-77821055D01*
X195420984Y-78025639D01*
X195582414Y-78254333D01*
X195711200Y-78502879D01*
X195804943Y-78766647D01*
X195861897Y-79040722D01*
X195881000Y-79320000D01*
X195861897Y-79599278D01*
X195804943Y-79873353D01*
X195711200Y-80137121D01*
X195582414Y-80385667D01*
X195420984Y-80614361D01*
X195229916Y-80818945D01*
X195012771Y-80995605D01*
X194773593Y-81141053D01*
X194516838Y-81252577D01*
X194247288Y-81328101D01*
X193969965Y-81366219D01*
X193690035Y-81366219D01*
X193412712Y-81328101D01*
X193143162Y-81252577D01*
X192886407Y-81141053D01*
X192647229Y-80995605D01*
X192430084Y-80818945D01*
X192239016Y-80614361D01*
X192077586Y-80385667D01*
X191948800Y-80137121D01*
X191855057Y-79873353D01*
X191798103Y-79599278D01*
X191779000Y-79320000D01*
X191798103Y-79040722D01*
X191855057Y-78766647D01*
X191948800Y-78502879D01*
X192077586Y-78254333D01*
X192239016Y-78025639D01*
X192430084Y-77821055D01*
X192647229Y-77644395D01*
X192886407Y-77498947D01*
X193143162Y-77387423D01*
X193412712Y-77311899D01*
X193690035Y-77273781D01*
X193969965Y-77273781D01*
X194247288Y-77311899D01*
G37*
G36*
X176609517Y-77052882D02*
G01*
X176626062Y-77063938D01*
X176637118Y-77080483D01*
X176641000Y-77100000D01*
X176641000Y-78700000D01*
X176637118Y-78719517D01*
X176626062Y-78736062D01*
X176609517Y-78747118D01*
X176590000Y-78751000D01*
X174990000Y-78751000D01*
X174970483Y-78747118D01*
X174953938Y-78736062D01*
X174942882Y-78719517D01*
X174939000Y-78700000D01*
X174939000Y-77100000D01*
X174942882Y-77080483D01*
X174953938Y-77063938D01*
X174970483Y-77052882D01*
X174990000Y-77049000D01*
X176590000Y-77049000D01*
X176609517Y-77052882D01*
G37*
G36*
X178601199Y-77053662D02*
G01*
X178648954Y-77053662D01*
X178690194Y-77062427D01*
X178725901Y-77065945D01*
X178770759Y-77079552D01*
X178822973Y-77090651D01*
X178856384Y-77105526D01*
X178885435Y-77114339D01*
X178931602Y-77139015D01*
X178985500Y-77163012D01*
X179010554Y-77181215D01*
X179032453Y-77192920D01*
X179077128Y-77229584D01*
X179129430Y-77267584D01*
X179146411Y-77286443D01*
X179161320Y-77298679D01*
X179201387Y-77347501D01*
X179248473Y-77399795D01*
X179258364Y-77416927D01*
X179267079Y-77427546D01*
X179299306Y-77487840D01*
X179337427Y-77553867D01*
X179341813Y-77567368D01*
X179345660Y-77574564D01*
X179366861Y-77644455D01*
X179392404Y-77723067D01*
X179393303Y-77731623D01*
X179394054Y-77734098D01*
X179401371Y-77808389D01*
X179411000Y-77900000D01*
X179401370Y-77991619D01*
X179394054Y-78065901D01*
X179393303Y-78068375D01*
X179392404Y-78076933D01*
X179366856Y-78155558D01*
X179345660Y-78225435D01*
X179341814Y-78232629D01*
X179337427Y-78246133D01*
X179299299Y-78312172D01*
X179267079Y-78372453D01*
X179258366Y-78383069D01*
X179248473Y-78400205D01*
X179201378Y-78452509D01*
X179161320Y-78501320D01*
X179146414Y-78513552D01*
X179129430Y-78532416D01*
X179077118Y-78570423D01*
X179032453Y-78607079D01*
X179010559Y-78618780D01*
X178985500Y-78636988D01*
X178931591Y-78660989D01*
X178885435Y-78685660D01*
X178856391Y-78694470D01*
X178822973Y-78709349D01*
X178770748Y-78720449D01*
X178725901Y-78734054D01*
X178690203Y-78737570D01*
X178648954Y-78746338D01*
X178601188Y-78746338D01*
X178560000Y-78750395D01*
X178518811Y-78746338D01*
X178471046Y-78746338D01*
X178429797Y-78737570D01*
X178394098Y-78734054D01*
X178349248Y-78720448D01*
X178297027Y-78709349D01*
X178263610Y-78694471D01*
X178234564Y-78685660D01*
X178188402Y-78660986D01*
X178134500Y-78636988D01*
X178109443Y-78618783D01*
X178087546Y-78607079D01*
X178042873Y-78570416D01*
X177990570Y-78532416D01*
X177973588Y-78513555D01*
X177958679Y-78501320D01*
X177918610Y-78452496D01*
X177871527Y-78400205D01*
X177861636Y-78383073D01*
X177852920Y-78372453D01*
X177820687Y-78312148D01*
X177782573Y-78246133D01*
X177778186Y-78232634D01*
X177774339Y-78225435D01*
X177753128Y-78155512D01*
X177727596Y-78076933D01*
X177726697Y-78068380D01*
X177725945Y-78065901D01*
X177718613Y-77991467D01*
X177709000Y-77900000D01*
X177718612Y-77808540D01*
X177725945Y-77734098D01*
X177726697Y-77731618D01*
X177727596Y-77723067D01*
X177753123Y-77644502D01*
X177774339Y-77574564D01*
X177778187Y-77567363D01*
X177782573Y-77553867D01*
X177820680Y-77487863D01*
X177852920Y-77427546D01*
X177861638Y-77416923D01*
X177871527Y-77399795D01*
X177918601Y-77347513D01*
X177958679Y-77298679D01*
X177973591Y-77286440D01*
X177990570Y-77267584D01*
X178042862Y-77229591D01*
X178087546Y-77192920D01*
X178109448Y-77181213D01*
X178134500Y-77163012D01*
X178188391Y-77139018D01*
X178234564Y-77114339D01*
X178263617Y-77105525D01*
X178297027Y-77090651D01*
X178349237Y-77079553D01*
X178394098Y-77065945D01*
X178429806Y-77062427D01*
X178471046Y-77053662D01*
X178518801Y-77053662D01*
X178560000Y-77049604D01*
X178601199Y-77053662D01*
G37*
G36*
X181371199Y-77053662D02*
G01*
X181418954Y-77053662D01*
X181460194Y-77062427D01*
X181495901Y-77065945D01*
X181540759Y-77079552D01*
X181592973Y-77090651D01*
X181626384Y-77105526D01*
X181655435Y-77114339D01*
X181701602Y-77139015D01*
X181755500Y-77163012D01*
X181780554Y-77181215D01*
X181802453Y-77192920D01*
X181847128Y-77229584D01*
X181899430Y-77267584D01*
X181916411Y-77286443D01*
X181931320Y-77298679D01*
X181971387Y-77347501D01*
X182018473Y-77399795D01*
X182028364Y-77416927D01*
X182037079Y-77427546D01*
X182069306Y-77487840D01*
X182107427Y-77553867D01*
X182111813Y-77567368D01*
X182115660Y-77574564D01*
X182136861Y-77644455D01*
X182162404Y-77723067D01*
X182163303Y-77731623D01*
X182164054Y-77734098D01*
X182171371Y-77808389D01*
X182181000Y-77900000D01*
X182171370Y-77991619D01*
X182164054Y-78065901D01*
X182163303Y-78068375D01*
X182162404Y-78076933D01*
X182136856Y-78155558D01*
X182115660Y-78225435D01*
X182111814Y-78232629D01*
X182107427Y-78246133D01*
X182069299Y-78312172D01*
X182037079Y-78372453D01*
X182028366Y-78383069D01*
X182018473Y-78400205D01*
X181971378Y-78452509D01*
X181931320Y-78501320D01*
X181916414Y-78513552D01*
X181899430Y-78532416D01*
X181847118Y-78570423D01*
X181802453Y-78607079D01*
X181780559Y-78618780D01*
X181755500Y-78636988D01*
X181701591Y-78660989D01*
X181655435Y-78685660D01*
X181626391Y-78694470D01*
X181592973Y-78709349D01*
X181540748Y-78720449D01*
X181495901Y-78734054D01*
X181460203Y-78737570D01*
X181418954Y-78746338D01*
X181371188Y-78746338D01*
X181330000Y-78750395D01*
X181288811Y-78746338D01*
X181241046Y-78746338D01*
X181199797Y-78737570D01*
X181164098Y-78734054D01*
X181119248Y-78720448D01*
X181067027Y-78709349D01*
X181033610Y-78694471D01*
X181004564Y-78685660D01*
X180958402Y-78660986D01*
X180904500Y-78636988D01*
X180879443Y-78618783D01*
X180857546Y-78607079D01*
X180812873Y-78570416D01*
X180760570Y-78532416D01*
X180743588Y-78513555D01*
X180728679Y-78501320D01*
X180688610Y-78452496D01*
X180641527Y-78400205D01*
X180631636Y-78383073D01*
X180622920Y-78372453D01*
X180590687Y-78312148D01*
X180552573Y-78246133D01*
X180548186Y-78232634D01*
X180544339Y-78225435D01*
X180523128Y-78155512D01*
X180497596Y-78076933D01*
X180496697Y-78068380D01*
X180495945Y-78065901D01*
X180488613Y-77991467D01*
X180479000Y-77900000D01*
X180488612Y-77808540D01*
X180495945Y-77734098D01*
X180496697Y-77731618D01*
X180497596Y-77723067D01*
X180523123Y-77644502D01*
X180544339Y-77574564D01*
X180548187Y-77567363D01*
X180552573Y-77553867D01*
X180590680Y-77487863D01*
X180622920Y-77427546D01*
X180631638Y-77416923D01*
X180641527Y-77399795D01*
X180688601Y-77347513D01*
X180728679Y-77298679D01*
X180743591Y-77286440D01*
X180760570Y-77267584D01*
X180812862Y-77229591D01*
X180857546Y-77192920D01*
X180879448Y-77181213D01*
X180904500Y-77163012D01*
X180958391Y-77139018D01*
X181004564Y-77114339D01*
X181033617Y-77105525D01*
X181067027Y-77090651D01*
X181119237Y-77079553D01*
X181164098Y-77065945D01*
X181199806Y-77062427D01*
X181241046Y-77053662D01*
X181288801Y-77053662D01*
X181330000Y-77049604D01*
X181371199Y-77053662D01*
G37*
G36*
X184141199Y-77053662D02*
G01*
X184188954Y-77053662D01*
X184230194Y-77062427D01*
X184265901Y-77065945D01*
X184310759Y-77079552D01*
X184362973Y-77090651D01*
X184396384Y-77105526D01*
X184425435Y-77114339D01*
X184471602Y-77139015D01*
X184525500Y-77163012D01*
X184550554Y-77181215D01*
X184572453Y-77192920D01*
X184617128Y-77229584D01*
X184669430Y-77267584D01*
X184686411Y-77286443D01*
X184701320Y-77298679D01*
X184741387Y-77347501D01*
X184788473Y-77399795D01*
X184798364Y-77416927D01*
X184807079Y-77427546D01*
X184839306Y-77487840D01*
X184877427Y-77553867D01*
X184881813Y-77567368D01*
X184885660Y-77574564D01*
X184906861Y-77644455D01*
X184932404Y-77723067D01*
X184933303Y-77731623D01*
X184934054Y-77734098D01*
X184941371Y-77808389D01*
X184951000Y-77900000D01*
X184941370Y-77991619D01*
X184934054Y-78065901D01*
X184933303Y-78068375D01*
X184932404Y-78076933D01*
X184906856Y-78155558D01*
X184885660Y-78225435D01*
X184881814Y-78232629D01*
X184877427Y-78246133D01*
X184839299Y-78312172D01*
X184807079Y-78372453D01*
X184798366Y-78383069D01*
X184788473Y-78400205D01*
X184741378Y-78452509D01*
X184701320Y-78501320D01*
X184686414Y-78513552D01*
X184669430Y-78532416D01*
X184617118Y-78570423D01*
X184572453Y-78607079D01*
X184550559Y-78618780D01*
X184525500Y-78636988D01*
X184471591Y-78660989D01*
X184425435Y-78685660D01*
X184396391Y-78694470D01*
X184362973Y-78709349D01*
X184310748Y-78720449D01*
X184265901Y-78734054D01*
X184230203Y-78737570D01*
X184188954Y-78746338D01*
X184141188Y-78746338D01*
X184100000Y-78750395D01*
X184058811Y-78746338D01*
X184011046Y-78746338D01*
X183969797Y-78737570D01*
X183934098Y-78734054D01*
X183889248Y-78720448D01*
X183837027Y-78709349D01*
X183803610Y-78694471D01*
X183774564Y-78685660D01*
X183728402Y-78660986D01*
X183674500Y-78636988D01*
X183649443Y-78618783D01*
X183627546Y-78607079D01*
X183582873Y-78570416D01*
X183530570Y-78532416D01*
X183513588Y-78513555D01*
X183498679Y-78501320D01*
X183458610Y-78452496D01*
X183411527Y-78400205D01*
X183401636Y-78383073D01*
X183392920Y-78372453D01*
X183360687Y-78312148D01*
X183322573Y-78246133D01*
X183318186Y-78232634D01*
X183314339Y-78225435D01*
X183293128Y-78155512D01*
X183267596Y-78076933D01*
X183266697Y-78068380D01*
X183265945Y-78065901D01*
X183258613Y-77991467D01*
X183249000Y-77900000D01*
X183258612Y-77808540D01*
X183265945Y-77734098D01*
X183266697Y-77731618D01*
X183267596Y-77723067D01*
X183293123Y-77644502D01*
X183314339Y-77574564D01*
X183318187Y-77567363D01*
X183322573Y-77553867D01*
X183360680Y-77487863D01*
X183392920Y-77427546D01*
X183401638Y-77416923D01*
X183411527Y-77399795D01*
X183458601Y-77347513D01*
X183498679Y-77298679D01*
X183513591Y-77286440D01*
X183530570Y-77267584D01*
X183582862Y-77229591D01*
X183627546Y-77192920D01*
X183649448Y-77181213D01*
X183674500Y-77163012D01*
X183728391Y-77139018D01*
X183774564Y-77114339D01*
X183803617Y-77105525D01*
X183837027Y-77090651D01*
X183889237Y-77079553D01*
X183934098Y-77065945D01*
X183969806Y-77062427D01*
X184011046Y-77053662D01*
X184058801Y-77053662D01*
X184100000Y-77049604D01*
X184141199Y-77053662D01*
G37*
G36*
X186911199Y-77053662D02*
G01*
X186958954Y-77053662D01*
X187000194Y-77062427D01*
X187035901Y-77065945D01*
X187080759Y-77079552D01*
X187132973Y-77090651D01*
X187166384Y-77105526D01*
X187195435Y-77114339D01*
X187241602Y-77139015D01*
X187295500Y-77163012D01*
X187320554Y-77181215D01*
X187342453Y-77192920D01*
X187387128Y-77229584D01*
X187439430Y-77267584D01*
X187456411Y-77286443D01*
X187471320Y-77298679D01*
X187511387Y-77347501D01*
X187558473Y-77399795D01*
X187568364Y-77416927D01*
X187577079Y-77427546D01*
X187609306Y-77487840D01*
X187647427Y-77553867D01*
X187651813Y-77567368D01*
X187655660Y-77574564D01*
X187676861Y-77644455D01*
X187702404Y-77723067D01*
X187703303Y-77731623D01*
X187704054Y-77734098D01*
X187711371Y-77808389D01*
X187721000Y-77900000D01*
X187711370Y-77991619D01*
X187704054Y-78065901D01*
X187703303Y-78068375D01*
X187702404Y-78076933D01*
X187676856Y-78155558D01*
X187655660Y-78225435D01*
X187651814Y-78232629D01*
X187647427Y-78246133D01*
X187609299Y-78312172D01*
X187577079Y-78372453D01*
X187568366Y-78383069D01*
X187558473Y-78400205D01*
X187511378Y-78452509D01*
X187471320Y-78501320D01*
X187456414Y-78513552D01*
X187439430Y-78532416D01*
X187387118Y-78570423D01*
X187342453Y-78607079D01*
X187320559Y-78618780D01*
X187295500Y-78636988D01*
X187241591Y-78660989D01*
X187195435Y-78685660D01*
X187166391Y-78694470D01*
X187132973Y-78709349D01*
X187080748Y-78720449D01*
X187035901Y-78734054D01*
X187000203Y-78737570D01*
X186958954Y-78746338D01*
X186911188Y-78746338D01*
X186870000Y-78750395D01*
X186828811Y-78746338D01*
X186781046Y-78746338D01*
X186739797Y-78737570D01*
X186704098Y-78734054D01*
X186659248Y-78720448D01*
X186607027Y-78709349D01*
X186573610Y-78694471D01*
X186544564Y-78685660D01*
X186498402Y-78660986D01*
X186444500Y-78636988D01*
X186419443Y-78618783D01*
X186397546Y-78607079D01*
X186352873Y-78570416D01*
X186300570Y-78532416D01*
X186283588Y-78513555D01*
X186268679Y-78501320D01*
X186228610Y-78452496D01*
X186181527Y-78400205D01*
X186171636Y-78383073D01*
X186162920Y-78372453D01*
X186130687Y-78312148D01*
X186092573Y-78246133D01*
X186088186Y-78232634D01*
X186084339Y-78225435D01*
X186063128Y-78155512D01*
X186037596Y-78076933D01*
X186036697Y-78068380D01*
X186035945Y-78065901D01*
X186028613Y-77991467D01*
X186019000Y-77900000D01*
X186028612Y-77808540D01*
X186035945Y-77734098D01*
X186036697Y-77731618D01*
X186037596Y-77723067D01*
X186063123Y-77644502D01*
X186084339Y-77574564D01*
X186088187Y-77567363D01*
X186092573Y-77553867D01*
X186130680Y-77487863D01*
X186162920Y-77427546D01*
X186171638Y-77416923D01*
X186181527Y-77399795D01*
X186228601Y-77347513D01*
X186268679Y-77298679D01*
X186283591Y-77286440D01*
X186300570Y-77267584D01*
X186352862Y-77229591D01*
X186397546Y-77192920D01*
X186419448Y-77181213D01*
X186444500Y-77163012D01*
X186498391Y-77139018D01*
X186544564Y-77114339D01*
X186573617Y-77105525D01*
X186607027Y-77090651D01*
X186659237Y-77079553D01*
X186704098Y-77065945D01*
X186739806Y-77062427D01*
X186781046Y-77053662D01*
X186828801Y-77053662D01*
X186870000Y-77049604D01*
X186911199Y-77053662D01*
G37*
M02*
