%TF.GenerationSoftware,KiCad,Pcbnew,8.0.7*%
%TF.CreationDate,2025-01-08T21:36:27+01:00*%
%TF.ProjectId,adampsu,6164616d-7073-4752-9e6b-696361645f70,rev?*%
%TF.SameCoordinates,Original*%
%TF.FileFunction,Copper,L1,Top*%
%TF.FilePolarity,Positive*%
%FSLAX46Y46*%
G04 Gerber Fmt 4.6, Leading zero omitted, Abs format (unit mm)*
G04 Created by KiCad (PCBNEW 8.0.7) date 2025-01-08 21:36:27*
%MOMM*%
%LPD*%
G01*
G04 APERTURE LIST*
G04 Aperture macros list*
%AMRoundRect*
0 Rectangle with rounded corners*
0 $1 Rounding radius*
0 $2 $3 $4 $5 $6 $7 $8 $9 X,Y pos of 4 corners*
0 Add a 4 corners polygon primitive as box body*
4,1,4,$2,$3,$4,$5,$6,$7,$8,$9,$2,$3,0*
0 Add four circle primitives for the rounded corners*
1,1,$1+$1,$2,$3*
1,1,$1+$1,$4,$5*
1,1,$1+$1,$6,$7*
1,1,$1+$1,$8,$9*
0 Add four rect primitives between the rounded corners*
20,1,$1+$1,$2,$3,$4,$5,0*
20,1,$1+$1,$4,$5,$6,$7,0*
20,1,$1+$1,$6,$7,$8,$9,0*
20,1,$1+$1,$8,$9,$2,$3,0*%
G04 Aperture macros list end*
%TA.AperFunction,ComponentPad*%
%ADD10C,4.000000*%
%TD*%
%TA.AperFunction,ComponentPad*%
%ADD11R,1.600000X1.600000*%
%TD*%
%TA.AperFunction,ComponentPad*%
%ADD12C,1.600000*%
%TD*%
%TA.AperFunction,ComponentPad*%
%ADD13R,3.000000X3.000000*%
%TD*%
%TA.AperFunction,ComponentPad*%
%ADD14R,1.500000X1.500000*%
%TD*%
%TA.AperFunction,ComponentPad*%
%ADD15O,1.500000X1.500000*%
%TD*%
%TA.AperFunction,ComponentPad*%
%ADD16RoundRect,0.250001X-1.099999X-1.599999X1.099999X-1.599999X1.099999X1.599999X-1.099999X1.599999X0*%
%TD*%
%TA.AperFunction,ComponentPad*%
%ADD17O,2.700000X3.700000*%
%TD*%
%TA.AperFunction,ComponentPad*%
%ADD18R,1.308000X1.308000*%
%TD*%
%TA.AperFunction,ComponentPad*%
%ADD19C,1.308000*%
%TD*%
%TA.AperFunction,ComponentPad*%
%ADD20R,1.905000X2.000000*%
%TD*%
%TA.AperFunction,ComponentPad*%
%ADD21O,1.905000X2.000000*%
%TD*%
%TA.AperFunction,ComponentPad*%
%ADD22R,3.500000X3.500000*%
%TD*%
%TA.AperFunction,ComponentPad*%
%ADD23RoundRect,0.750000X-0.750000X-1.000000X0.750000X-1.000000X0.750000X1.000000X-0.750000X1.000000X0*%
%TD*%
%TA.AperFunction,ComponentPad*%
%ADD24RoundRect,0.875000X-0.875000X-0.875000X0.875000X-0.875000X0.875000X0.875000X-0.875000X0.875000X0*%
%TD*%
%TA.AperFunction,ViaPad*%
%ADD25C,0.800000*%
%TD*%
%TA.AperFunction,Conductor*%
%ADD26C,1.000000*%
%TD*%
%TA.AperFunction,Conductor*%
%ADD27C,0.304800*%
%TD*%
G04 APERTURE END LIST*
D10*
%TO.P,J3,0*%
%TO.N,N/C*%
X193830000Y-79320000D03*
X168830000Y-79320000D03*
D11*
%TO.P,J3,1,1*%
%TO.N,+12V*%
X175790000Y-77900000D03*
D12*
%TO.P,J3,2,2*%
X178560000Y-77900000D03*
%TO.P,J3,3,3*%
%TO.N,/+5V*%
X181330000Y-77900000D03*
%TO.P,J3,4,4*%
%TO.N,/-5V*%
X184100000Y-77900000D03*
%TO.P,J3,5,5*%
%TO.N,GND*%
X186870000Y-77900000D03*
%TO.P,J3,6,6*%
%TO.N,unconnected-(J3-Pad6)*%
X177175000Y-80740000D03*
%TO.P,J3,7,7*%
%TO.N,unconnected-(J3-Pad7)*%
X179945000Y-80740000D03*
%TO.P,J3,8,8*%
%TO.N,GND*%
X182715000Y-80740000D03*
%TO.P,J3,9,9*%
%TO.N,unconnected-(J3-Pad9)*%
X185485000Y-80740000D03*
%TD*%
D13*
%TO.P,TP3,1,1*%
%TO.N,/+5V*%
X187105000Y-107920000D03*
%TD*%
%TO.P,TP2,1,1*%
%TO.N,+12V*%
X182055000Y-107920000D03*
%TD*%
%TO.P,TP4,1,1*%
%TO.N,/-5V*%
X171955000Y-107920000D03*
%TD*%
%TO.P,TP5,1,1*%
%TO.N,GND*%
X192155000Y-107920000D03*
%TD*%
%TO.P,TP1,1,1*%
%TO.N,+12V*%
X177005000Y-107920000D03*
%TD*%
D14*
%TO.P,D1,1,K*%
%TO.N,+12V*%
X165255000Y-104710000D03*
D15*
%TO.P,D1,2,A*%
%TO.N,GND*%
X165255000Y-97090000D03*
%TD*%
D16*
%TO.P,J4,1,+3.3V*%
%TO.N,unconnected-(J4-+3.3V-Pad1)_1*%
X122055000Y-87170000D03*
D17*
%TO.P,J4,2,+3.3V*%
%TO.N,unconnected-(J4-+3.3V-Pad1)*%
X126255000Y-87170000D03*
%TO.P,J4,3,GND*%
%TO.N,GND*%
X130455000Y-87170000D03*
%TO.P,J4,4,+5V*%
%TO.N,/+5V*%
X134655000Y-87170000D03*
%TO.P,J4,5,GND*%
%TO.N,GND*%
X138855000Y-87170000D03*
%TO.P,J4,6,+5V*%
%TO.N,/+5V*%
X143055000Y-87170000D03*
%TO.P,J4,7,GND*%
%TO.N,GND*%
X147255000Y-87170000D03*
%TO.P,J4,8,PWR_OK*%
%TO.N,unconnected-(J4-PWR_OK-Pad8)*%
X151455000Y-87170000D03*
%TO.P,J4,9,+5VSB*%
%TO.N,unconnected-(J4-+5VSB-Pad9)*%
X155655000Y-87170000D03*
%TO.P,J4,10,+12V*%
%TO.N,+12V*%
X159855000Y-87170000D03*
%TO.P,J4,11,+3.3V*%
%TO.N,unconnected-(J4-+3.3V-Pad1)_2*%
X122055000Y-92670000D03*
%TO.P,J4,12,-12V*%
%TO.N,-12V*%
X126255000Y-92670000D03*
%TO.P,J4,13,GND*%
%TO.N,GND*%
X130455000Y-92670000D03*
%TO.P,J4,14,PS_ON#*%
%TO.N,PWON*%
X134655000Y-92670000D03*
%TO.P,J4,15,GND*%
%TO.N,GND*%
X138855000Y-92670000D03*
%TO.P,J4,16,GND*%
X143055000Y-92670000D03*
%TO.P,J4,17,GND*%
X147255000Y-92670000D03*
%TO.P,J4,18,-5V/NC*%
%TO.N,unconnected-(J4--5V{slash}NC-Pad18)*%
X151455000Y-92670000D03*
%TO.P,J4,19,+5V*%
%TO.N,/+5V*%
X155655000Y-92670000D03*
%TO.P,J4,20,+5V*%
X159855000Y-92670000D03*
%TD*%
D18*
%TO.P,S1,1*%
%TO.N,PWON*%
X191830000Y-95332500D03*
D19*
%TO.P,S1,2*%
%TO.N,GND*%
X193830000Y-95332500D03*
%TO.P,S1,3*%
%TO.N,unconnected-(S1-Pad3)*%
X195830000Y-95332500D03*
%TO.P,S1,4*%
%TO.N,unconnected-(S1-Pad4)*%
X191830000Y-100332500D03*
%TO.P,S1,5*%
%TO.N,GND*%
X193830000Y-100332500D03*
%TO.P,S1,6*%
%TO.N,unconnected-(S1-Pad6)*%
X195830000Y-100332500D03*
%TD*%
D11*
%TO.P,C1,1*%
%TO.N,/-5V*%
X169572600Y-95945000D03*
D12*
%TO.P,C1,2*%
%TO.N,GND*%
X172072600Y-95945000D03*
%TD*%
D20*
%TO.P,U1,1,GND*%
%TO.N,GND*%
X184330000Y-89495000D03*
D21*
%TO.P,U1,2,VI*%
%TO.N,-12V*%
X181790000Y-89495000D03*
%TO.P,U1,3,VO*%
%TO.N,/-5V*%
X179250000Y-89495000D03*
%TD*%
D22*
%TO.P,J1,1*%
%TO.N,+12V*%
X130880000Y-103752500D03*
D23*
%TO.P,J1,2*%
%TO.N,GND*%
X124880000Y-103752500D03*
D24*
%TO.P,J1,3*%
%TO.N,unconnected-(J1-Pad3)*%
X127880000Y-99052500D03*
%TD*%
D25*
%TO.N,/+5V*%
X177792900Y-88628200D03*
%TD*%
D26*
%TO.N,GND*%
X165995200Y-97090000D02*
X165255000Y-97090000D01*
X177880000Y-95945000D02*
X172072600Y-95945000D01*
X165255000Y-97090000D02*
X152393400Y-97090000D01*
X152393400Y-97090000D02*
X149335300Y-94031900D01*
X172072600Y-96136100D02*
X170727200Y-97481500D01*
X143055000Y-92670000D02*
X138855000Y-92670000D01*
X165995200Y-97090000D02*
X166735300Y-97090000D01*
X147255000Y-92670000D02*
X143055000Y-92670000D01*
X149335300Y-94031900D02*
X149335300Y-92670000D01*
X172072600Y-95945000D02*
X172072600Y-96136100D01*
X184330000Y-89495000D02*
X177880000Y-95945000D01*
X167126800Y-97481500D02*
X166735300Y-97090000D01*
X147255000Y-92670000D02*
X149335300Y-92670000D01*
X170727200Y-97481500D02*
X167126800Y-97481500D01*
%TO.N,+12V*%
X165255000Y-104710000D02*
X172819200Y-104710000D01*
X164514900Y-104710000D02*
X165255000Y-104710000D01*
X172819200Y-104710000D02*
X174774700Y-106665500D01*
X175889900Y-107920000D02*
X177005000Y-107920000D01*
X174774700Y-106665500D02*
X174774700Y-107920000D01*
X177005000Y-107920000D02*
X182055000Y-107920000D01*
X162817200Y-103752500D02*
X163774700Y-104710000D01*
X164514900Y-104710000D02*
X163774700Y-104710000D01*
X178560000Y-77900000D02*
X175790000Y-77900000D01*
X175889900Y-107920000D02*
X174774700Y-107920000D01*
X130880000Y-103752500D02*
X162817200Y-103752500D01*
%TO.N,/-5V*%
X175759100Y-89758500D02*
X178986500Y-89758500D01*
X169572600Y-95945000D02*
X175759100Y-89758500D01*
X178986500Y-89758500D02*
X179250000Y-89495000D01*
D27*
%TO.N,-12V*%
X126255000Y-92670000D02*
X127987700Y-92670000D01*
X161848300Y-89920000D02*
X130204900Y-89920000D01*
X127987700Y-92137200D02*
X127987700Y-92670000D01*
X180109100Y-87814100D02*
X163954200Y-87814100D01*
X181790000Y-89495000D02*
X180109100Y-87814100D01*
X130204900Y-89920000D02*
X127987700Y-92137200D01*
X163954200Y-87814100D02*
X161848300Y-89920000D01*
%TO.N,/+5V*%
X165629500Y-88628200D02*
X177792900Y-88628200D01*
X159855000Y-92670000D02*
X161587700Y-92670000D01*
X159855000Y-92670000D02*
X155655000Y-92670000D01*
X161587700Y-92670000D02*
X165629500Y-88628200D01*
%TO.N,PWON*%
X141563200Y-98387000D02*
X187738800Y-98387000D01*
X187738800Y-98387000D02*
X190793300Y-95332500D01*
X136387700Y-93211500D02*
X141563200Y-98387000D01*
X136387700Y-92670000D02*
X136387700Y-93211500D01*
X134655000Y-92670000D02*
X136387700Y-92670000D01*
X191830000Y-95332500D02*
X190793300Y-95332500D01*
%TD*%
M02*
