%TF.GenerationSoftware,KiCad,Pcbnew,8.0.7*%
%TF.CreationDate,2025-01-08T21:36:27+01:00*%
%TF.ProjectId,adampsu,6164616d-7073-4752-9e6b-696361645f70,rev?*%
%TF.SameCoordinates,Original*%
%TF.FileFunction,Legend,Bot*%
%TF.FilePolarity,Positive*%
%FSLAX46Y46*%
G04 Gerber Fmt 4.6, Leading zero omitted, Abs format (unit mm)*
G04 Created by KiCad (PCBNEW 8.0.7) date 2025-01-08 21:36:27*
%MOMM*%
%LPD*%
G01*
G04 APERTURE LIST*
G04 Aperture macros list*
%AMRoundRect*
0 Rectangle with rounded corners*
0 $1 Rounding radius*
0 $2 $3 $4 $5 $6 $7 $8 $9 X,Y pos of 4 corners*
0 Add a 4 corners polygon primitive as box body*
4,1,4,$2,$3,$4,$5,$6,$7,$8,$9,$2,$3,0*
0 Add four circle primitives for the rounded corners*
1,1,$1+$1,$2,$3*
1,1,$1+$1,$4,$5*
1,1,$1+$1,$6,$7*
1,1,$1+$1,$8,$9*
0 Add four rect primitives between the rounded corners*
20,1,$1+$1,$2,$3,$4,$5,0*
20,1,$1+$1,$4,$5,$6,$7,0*
20,1,$1+$1,$6,$7,$8,$9,0*
20,1,$1+$1,$8,$9,$2,$3,0*%
G04 Aperture macros list end*
%ADD10C,0.120000*%
%ADD11C,4.102000*%
%ADD12RoundRect,0.051000X0.800000X0.800000X-0.800000X0.800000X-0.800000X-0.800000X0.800000X-0.800000X0*%
%ADD13C,1.702000*%
%ADD14RoundRect,0.051000X-1.500000X-1.500000X1.500000X-1.500000X1.500000X1.500000X-1.500000X1.500000X0*%
%ADD15RoundRect,0.051000X0.750000X-0.750000X0.750000X0.750000X-0.750000X0.750000X-0.750000X-0.750000X0*%
%ADD16O,1.602000X1.602000*%
%ADD17C,3.102000*%
%ADD18RoundRect,0.259446X-1.141554X-1.641554X1.141554X-1.641554X1.141554X1.641554X-1.141554X1.641554X0*%
%ADD19O,2.802000X3.802000*%
%ADD20RoundRect,0.102000X-0.654000X-0.654000X0.654000X-0.654000X0.654000X0.654000X-0.654000X0.654000X0*%
%ADD21C,1.512000*%
%ADD22RoundRect,0.051000X-0.800000X-0.800000X0.800000X-0.800000X0.800000X0.800000X-0.800000X0.800000X0*%
%ADD23RoundRect,0.051000X0.952500X1.000000X-0.952500X1.000000X-0.952500X-1.000000X0.952500X-1.000000X0*%
%ADD24O,2.007000X2.102000*%
%ADD25RoundRect,0.051000X-1.750000X-1.750000X1.750000X-1.750000X1.750000X1.750000X-1.750000X1.750000X0*%
%ADD26RoundRect,0.775500X-0.775500X-1.025500X0.775500X-1.025500X0.775500X1.025500X-0.775500X1.025500X0*%
%ADD27RoundRect,0.900500X-0.900500X-0.900500X0.900500X-0.900500X0.900500X0.900500X-0.900500X0.900500X0*%
G04 APERTURE END LIST*
D10*
%TO.C,J3*%
X196815000Y-74070000D02*
X196815000Y-84570000D01*
X166905000Y-73010000D02*
X195755000Y-73010000D01*
X188367733Y-81958256D02*
X189196470Y-77258256D01*
X175098311Y-75310000D02*
X187561689Y-75310000D01*
X175927048Y-83330000D02*
X186732952Y-83330000D01*
X175540000Y-72115662D02*
X176040000Y-72115662D01*
X176040000Y-72115662D02*
X175790000Y-72548675D01*
X175790000Y-72548675D02*
X175540000Y-72115662D01*
X174292267Y-81958256D02*
X173463530Y-77258256D01*
X195755000Y-85630000D02*
X166905000Y-85630000D01*
X165845000Y-84570000D02*
X165845000Y-74070000D01*
X195755000Y-73010000D02*
G75*
G02*
X196815000Y-74070000I-1J-1060001D01*
G01*
X196815000Y-84570000D02*
G75*
G02*
X195755000Y-85630000I-1060001J1D01*
G01*
X187561689Y-75310000D02*
G75*
G02*
X189196470Y-77258256I0J-1660000D01*
G01*
X188367733Y-81958256D02*
G75*
G02*
X186732952Y-83330000I-1634780J288255D01*
G01*
X175927048Y-83330000D02*
G75*
G02*
X174292267Y-81958256I-1J1659999D01*
G01*
X173463530Y-77258256D02*
G75*
G02*
X175098311Y-75310001I1634780J288256D01*
G01*
X165845000Y-74070000D02*
G75*
G02*
X166905000Y-73010000I1060000J0D01*
G01*
X166905000Y-85630000D02*
G75*
G02*
X165845000Y-84570000I0J1060000D01*
G01*
%TO.C,J1*%
X117080000Y-99152500D02*
X125880000Y-99152500D01*
X117080000Y-108352500D02*
X117080000Y-99152500D01*
X129880000Y-99152500D02*
X131780000Y-99152500D01*
X131780000Y-99152500D02*
X131780000Y-101852500D01*
X131780000Y-105752500D02*
X131780000Y-108352500D01*
X131780000Y-108352500D02*
X117080000Y-108352500D01*
X131980000Y-108552500D02*
X130930000Y-108552500D01*
X131980000Y-108552500D02*
X131980000Y-107502500D01*
%TD*%
%LPC*%
D11*
%TO.C,J3*%
X193830000Y-79320000D03*
X168830000Y-79320000D03*
D12*
X175790000Y-77900000D03*
D13*
X178560000Y-77900000D03*
X181330000Y-77900000D03*
X184100000Y-77900000D03*
X186870000Y-77900000D03*
X177175000Y-80740000D03*
X179945000Y-80740000D03*
X182715000Y-80740000D03*
X185485000Y-80740000D03*
%TD*%
D14*
%TO.C,TP3*%
X187105000Y-107920000D03*
%TD*%
%TO.C,TP2*%
X182055000Y-107920000D03*
%TD*%
%TO.C,TP4*%
X171955000Y-107920000D03*
%TD*%
%TO.C,TP5*%
X192155000Y-107920000D03*
%TD*%
%TO.C,TP1*%
X177005000Y-107920000D03*
%TD*%
D15*
%TO.C,D1*%
X165255000Y-104710000D03*
D16*
X165255000Y-97090000D03*
%TD*%
D17*
%TO.C,J4*%
X122055000Y-79870000D03*
X159855000Y-79870000D03*
D18*
X122055000Y-87170000D03*
D19*
X126255000Y-87170000D03*
X130455000Y-87170000D03*
X134655000Y-87170000D03*
X138855000Y-87170000D03*
X143055000Y-87170000D03*
X147255000Y-87170000D03*
X151455000Y-87170000D03*
X155655000Y-87170000D03*
X159855000Y-87170000D03*
X122055000Y-92670000D03*
X126255000Y-92670000D03*
X130455000Y-92670000D03*
X134655000Y-92670000D03*
X138855000Y-92670000D03*
X143055000Y-92670000D03*
X147255000Y-92670000D03*
X151455000Y-92670000D03*
X155655000Y-92670000D03*
X159855000Y-92670000D03*
%TD*%
D20*
%TO.C,S1*%
X191830000Y-95332500D03*
D21*
X193830000Y-95332500D03*
X195830000Y-95332500D03*
X191830000Y-100332500D03*
X193830000Y-100332500D03*
X195830000Y-100332500D03*
%TD*%
D22*
%TO.C,C1*%
X169572600Y-95945000D03*
D13*
X172072600Y-95945000D03*
%TD*%
D23*
%TO.C,U1*%
X184330000Y-89495000D03*
D24*
X181790000Y-89495000D03*
X179250000Y-89495000D03*
%TD*%
D25*
%TO.C,J1*%
X130880000Y-103752500D03*
D26*
X124880000Y-103752500D03*
D27*
X127880000Y-99052500D03*
%TD*%
%LPD*%
M02*
